<svg width="39" height="16" viewBox="0 0 39 16" fill="none" xmlns="http://www.w3.org/2000/svg">
<path d="M9.425 0C8.294 0 7.2085 0.5297 6.5 1.36676C5.7915 0.5297 4.706 0 3.575 0C1.573 0 0 1.58256 0 3.59673C0 6.06866 2.21 8.08283 5.5575 11.1433L6.5 12L7.4425 11.1368C10.79 8.08283 13 6.06866 13 3.59673C13 1.58256 11.427 0 9.425 0ZM6.565 10.1689L6.5 10.2343L6.435 10.1689C3.341 7.35041 1.3 5.48665 1.3 3.59673C1.3 2.28883 2.275 1.3079 3.575 1.3079C4.576 1.3079 5.551 1.95531 5.8955 2.85123H7.111C7.449 1.95531 8.424 1.3079 9.425 1.3079C10.725 1.3079 11.7 2.28883 11.7 3.59673C11.7 5.48665 9.659 7.35041 6.565 10.1689Z" fill="#A1A6B4"/>
<path d="M20.504 1.12H27.032V2.4H21.768L21.576 5.472C22.152 5.312 22.7707 5.232 23.432 5.232C23.976 5.232 24.4827 5.296 24.952 5.424C25.4213 5.54133 25.8533 5.73333 26.248 6C26.6533 6.256 26.9733 6.61867 27.208 7.088C27.4427 7.54667 27.56 8.09067 27.56 8.72C27.56 9.79733 27.16 10.6453 26.36 11.264C25.5707 11.8827 24.5627 12.192 23.336 12.192C22.0133 12.192 20.8507 11.9467 19.848 11.456V10.176C20.808 10.688 21.9173 10.944 23.176 10.944C24.0933 10.944 24.824 10.752 25.368 10.368C25.9227 9.984 26.2 9.43467 26.2 8.72C26.2 7.20533 25.1227 6.448 22.968 6.448C22.0293 6.448 21.0907 6.61867 20.152 6.96L20.504 1.12ZM34.6016 1.12H36.0576V8.336H38.1056V9.584H36.0576V12H34.7296V9.584H28.6656V8.384L34.6016 1.12ZM34.7296 8.336V2.928L30.3136 8.336H34.7296Z" fill="#A1A6B4"/>
</svg>
