<svg width="34" height="12" viewBox="0 0 34 12" fill="none" xmlns="http://www.w3.org/2000/svg">
<path d="M9.425 0C8.294 0 7.2085 0.5297 6.5 1.36676C5.7915 0.5297 4.706 0 3.575 0C1.573 0 0 1.58256 0 3.59673C0 6.06866 2.21 8.08283 5.5575 11.1433L6.5 12L7.4425 11.1368C10.79 8.08283 13 6.06866 13 3.59673C13 1.58256 11.427 0 9.425 0ZM6.565 10.1689L6.5 10.2343L6.435 10.1689C3.341 7.35041 1.3 5.48665 1.3 3.59673C1.3 2.28883 2.275 1.3079 3.575 1.3079C4.576 1.3079 5.551 1.95531 5.8955 2.85123H7.111C7.449 1.95531 8.424 1.3079 9.425 1.3079C10.725 1.3079 11.7 2.28883 11.7 3.59673C11.7 5.48665 9.659 7.35041 6.565 10.1689Z" fill="#A1A6B4"/>
<path d="M20.128 0.84H25.024V1.8H21.076L20.932 4.104C21.364 3.984 21.828 3.924 22.324 3.924C22.732 3.924 23.112 3.972 23.464 4.068C23.816 4.156 24.14 4.3 24.436 4.5C24.74 4.692 24.98 4.964 25.156 5.316C25.332 5.66 25.42 6.068 25.42 6.54C25.42 7.348 25.12 7.984 24.52 8.448C23.928 8.912 23.172 9.144 22.252 9.144C21.26 9.144 20.388 8.96 19.636 8.592V7.632C20.356 8.016 21.188 8.208 22.132 8.208C22.82 8.208 23.368 8.064 23.776 7.776C24.192 7.488 24.4 7.076 24.4 6.54C24.4 5.404 23.592 4.836 21.976 4.836C21.272 4.836 20.568 4.964 19.864 5.22L20.128 0.84ZM30.7012 0.84H31.7932V6.252H33.3292V7.188H31.7932V9H30.7972V7.188H26.2492V6.288L30.7012 0.84ZM30.7972 6.252V2.196L27.4852 6.252H30.7972Z" fill="#A1A6B4"/>
</svg>
