<svg width="34" height="12" viewBox="0 0 34 12" fill="none" xmlns="http://www.w3.org/2000/svg">
<path d="M9.425 0C8.294 0 7.2085 0.5297 6.5 1.36676C5.7915 0.5297 4.706 0 3.575 0C1.573 0 0 1.58256 0 3.59673C0 6.06866 2.21 8.08283 5.5575 11.1433L6.5 12L7.4425 11.1368C10.79 8.08283 13 6.06866 13 3.59673C13 1.58256 11.427 0 9.425 0ZM6.565 10.1689L6.5 10.2343L6.435 10.1689C3.341 7.35041 1.3 5.48665 1.3 3.59673C1.3 2.28883 2.275 1.3079 3.575 1.3079C4.576 1.3079 5.551 1.95531 5.8955 2.85123H7.111C7.449 1.95531 8.424 1.3079 9.425 1.3079C10.725 1.3079 11.7 2.28883 11.7 3.59673C11.7 5.48665 9.659 7.35041 6.565 10.1689Z" fill="#A1A6B4"/>
<path d="M25.12 2.916C25.12 3.332 25.008 3.708 24.784 4.044C24.568 4.372 24.284 4.596 23.932 4.716C24.348 4.844 24.704 5.08 25 5.424C25.304 5.76 25.456 6.212 25.456 6.78C25.456 7.54 25.172 8.124 24.604 8.532C24.044 8.94 23.332 9.144 22.468 9.144C21.372 9.144 20.424 8.964 19.624 8.604V7.608C20.4 8.008 21.32 8.204 22.384 8.196C23.784 8.196 24.484 7.708 24.484 6.732C24.484 5.756 23.82 5.268 22.492 5.268H21.244V4.308L22.384 4.32C22.96 4.32 23.396 4.2 23.692 3.96C23.996 3.712 24.148 3.392 24.148 3C24.148 2.576 23.98 2.244 23.644 2.004C23.308 1.756 22.832 1.632 22.216 1.632C21.368 1.632 20.552 1.84 19.768 2.256V1.272C20.52 0.888 21.38 0.696 22.348 0.696C23.18 0.696 23.848 0.9 24.352 1.308C24.864 1.716 25.12 2.252 25.12 2.916ZM30.795 0.84H31.887V6.252H33.423V7.188H31.887V9H30.891V7.188H26.343V6.288L30.795 0.84ZM30.891 6.252V2.196L27.579 6.252H30.891Z" fill="#A1A6B4"/>
</svg>
