<svg width="39" height="16" viewBox="0 0 39 16" fill="none" xmlns="http://www.w3.org/2000/svg">
<path d="M9.425 0C8.294 0 7.2085 0.5297 6.5 1.36676C5.7915 0.5297 4.706 0 3.575 0C1.573 0 0 1.58256 0 3.59673C0 6.06866 2.21 8.08283 5.5575 11.1433L6.5 12L7.4425 11.1368C10.79 8.08283 13 6.06866 13 3.59673C13 1.58256 11.427 0 9.425 0ZM6.565 10.1689L6.5 10.2343L6.435 10.1689C3.341 7.35041 1.3 5.48665 1.3 3.59673C1.3 2.28883 2.275 1.3079 3.575 1.3079C4.576 1.3079 5.551 1.95531 5.8955 2.85123H7.111C7.449 1.95531 8.424 1.3079 9.425 1.3079C10.725 1.3079 11.7 2.28883 11.7 3.59673C11.7 5.48665 9.659 7.35041 6.565 10.1689Z" fill="#A1A6B4"/>
<path d="M27.16 3.888C27.16 4.44267 27.0107 4.944 26.712 5.392C26.424 5.82933 26.0453 6.128 25.576 6.288C26.1307 6.45867 26.6053 6.77333 27 7.232C27.4053 7.68 27.608 8.28267 27.608 9.04C27.608 10.0533 27.2293 10.832 26.472 11.376C25.7253 11.92 24.776 12.192 23.624 12.192C22.1627 12.192 20.8987 11.952 19.832 11.472V10.144C20.8667 10.6773 22.0933 10.9387 23.512 10.928C25.3787 10.928 26.312 10.2773 26.312 8.976C26.312 7.67467 25.4267 7.024 23.656 7.024H21.992V5.744L23.512 5.76C24.28 5.76 24.8613 5.6 25.256 5.28C25.6613 4.94933 25.864 4.52267 25.864 4C25.864 3.43467 25.64 2.992 25.192 2.672C24.744 2.34133 24.1093 2.176 23.288 2.176C22.1573 2.176 21.0693 2.45333 20.024 3.008V1.696C21.0267 1.184 22.1733 0.927999 23.464 0.927999C24.5733 0.927999 25.464 1.2 26.136 1.744C26.8187 2.288 27.16 3.00267 27.16 3.888ZM34.7266 1.12H36.1826V8.336H38.2306V9.584H36.1826V12H34.8546V9.584H28.7906V8.384L34.7266 1.12ZM34.8546 8.336V2.928L30.4386 8.336H34.8546Z" fill="#A1A6B4"/>
</svg>
