<svg width="41" height="12" viewBox="0 0 41 12" fill="none" xmlns="http://www.w3.org/2000/svg">
<path d="M9.425 0C8.294 0 7.2085 0.5297 6.5 1.36676C5.7915 0.5297 4.706 0 3.575 0C1.573 0 0 1.58256 0 3.59673C0 6.06866 2.21 8.08283 5.5575 11.1433L6.5 12L7.4425 11.1368C10.79 8.08283 13 6.06866 13 3.59673C13 1.58256 11.427 0 9.425 0ZM6.565 10.1689L6.5 10.2343L6.435 10.1689C3.341 7.35041 1.3 5.48665 1.3 3.59673C1.3 2.28883 2.275 1.3079 3.575 1.3079C4.576 1.3079 5.551 1.95531 5.8955 2.85123H7.111C7.449 1.95531 8.424 1.3079 9.425 1.3079C10.725 1.3079 11.7 2.28883 11.7 3.59673C11.7 5.48665 9.659 7.35041 6.565 10.1689Z" fill="#A1A6B4"/>
<path d="M21.616 0.84H22.36V8.04H23.884V9H19.636V8.04H21.352V1.908L19.636 2.556V1.596L21.616 0.84ZM25.6803 7.98C25.0723 7.204 24.7683 6.184 24.7683 4.92C24.7683 3.656 25.0723 2.636 25.6803 1.86C26.2883 1.084 27.1843 0.696 28.3683 0.696C29.5603 0.696 30.4603 1.084 31.0683 1.86C31.6763 2.628 31.9803 3.648 31.9803 4.92C31.9803 6.192 31.6763 7.216 31.0683 7.992C30.4603 8.76 29.5603 9.144 28.3683 9.144C27.1843 9.144 26.2883 8.756 25.6803 7.98ZM30.3123 7.344C30.7443 6.776 30.9603 5.968 30.9603 4.92C30.9603 3.872 30.7443 3.068 30.3123 2.508C29.8883 1.94 29.2403 1.656 28.3683 1.656C27.4963 1.656 26.8483 1.94 26.4243 2.508C26.0003 3.068 25.7883 3.872 25.7883 4.92C25.7883 5.968 26.0003 6.776 26.4243 7.344C26.8483 7.904 27.4963 8.184 28.3683 8.184C29.2403 8.184 29.8883 7.904 30.3123 7.344ZM37.3458 0.84H38.4378V6.252H39.9738V7.188H38.4378V9H37.4418V7.188H32.8938V6.288L37.3458 0.84ZM37.4418 6.252V2.196L34.1298 6.252H37.4418Z" fill="#A1A6B4"/>
</svg>
