<svg width="39" height="16" viewBox="0 0 39 16" fill="none" xmlns="http://www.w3.org/2000/svg">
<path d="M9.425 0C8.294 0 7.2085 0.5297 6.5 1.36676C5.7915 0.5297 4.706 0 3.575 0C1.573 0 0 1.58256 0 3.59673C0 6.06866 2.21 8.08283 5.5575 11.1433L6.5 12L7.4425 11.1368C10.79 8.08283 13 6.06866 13 3.59673C13 1.58256 11.427 0 9.425 0ZM6.565 10.1689L6.5 10.2343L6.435 10.1689C3.341 7.35041 1.3 5.48665 1.3 3.59673C1.3 2.28883 2.275 1.3079 3.575 1.3079C4.576 1.3079 5.551 1.95531 5.8955 2.85123H7.111C7.449 1.95531 8.424 1.3079 9.425 1.3079C10.725 1.3079 11.7 2.28883 11.7 3.59673C11.7 5.48665 9.659 7.35041 6.565 10.1689Z" fill="#A1A6B4"/>
<path d="M20.088 1.984C21.1013 1.28 22.264 0.927999 23.576 0.927999C24.7067 0.927999 25.608 1.184 26.28 1.696C26.952 2.208 27.288 2.92267 27.288 3.84C27.288 4.27733 27.2027 4.688 27.032 5.072C26.872 5.456 26.6267 5.808 26.296 6.128C25.976 6.448 25.6613 6.72 25.352 6.944C25.0533 7.15733 24.6747 7.39733 24.216 7.664C24.1627 7.696 23.9973 7.792 23.72 7.952C23.4533 8.112 23.2827 8.21333 23.208 8.256C23.144 8.29867 22.9947 8.39467 22.76 8.544C22.536 8.68267 22.3867 8.784 22.312 8.848C22.248 8.912 22.1307 9.01333 21.96 9.152C21.8 9.29067 21.688 9.408 21.624 9.504C21.5707 9.6 21.496 9.72267 21.4 9.872C21.3147 10.0107 21.256 10.1493 21.224 10.288C21.192 10.4267 21.176 10.576 21.176 10.736L27.368 10.72V12H19.704V11.36C19.704 10.7627 19.8 10.224 19.992 9.744C20.184 9.25333 20.456 8.83733 20.808 8.496C21.1707 8.144 21.528 7.85067 21.88 7.616C22.232 7.37067 22.6427 7.10933 23.112 6.832C23.2187 6.77867 23.2987 6.736 23.352 6.704C24.3227 6.13867 24.9573 5.70667 25.256 5.408C25.7147 4.93867 25.944 4.41067 25.944 3.824C25.944 3.29067 25.7253 2.88533 25.288 2.608C24.8613 2.32 24.2533 2.176 23.464 2.176C22.312 2.176 21.1867 2.56 20.088 3.328V1.984ZM28.7955 4.496C28.7955 3.376 29.1635 2.50133 29.8995 1.872C30.6462 1.24267 31.5795 0.927999 32.6995 0.927999C34.2355 0.927999 35.3822 1.408 36.1395 2.368C36.9075 3.31733 37.2915 4.656 37.2915 6.384C37.2915 8.304 36.8328 9.75467 35.9155 10.736C35.0088 11.7067 33.8195 12.192 32.3475 12.192C31.3982 12.192 30.5182 11.984 29.7075 11.568V10.288C30.4968 10.704 31.3662 10.912 32.3155 10.912C33.3182 10.912 34.1502 10.592 34.8115 9.952C35.4835 9.30133 35.8568 8.272 35.9315 6.864C34.8862 7.55733 33.7502 7.904 32.5235 7.904C31.5315 7.904 30.6622 7.60533 29.9155 7.008C29.1688 6.4 28.7955 5.56267 28.7955 4.496ZM32.7955 2.176C32.0062 2.176 31.3662 2.35733 30.8755 2.72C30.3955 3.08267 30.1555 3.65333 30.1555 4.432C30.1555 5.22133 30.4062 5.792 30.9075 6.144C31.4088 6.48533 32.0595 6.656 32.8595 6.656C34.0435 6.656 35.0622 6.27733 35.9155 5.52C35.7128 3.29067 34.6728 2.176 32.7955 2.176Z" fill="#A1A6B4"/>
</svg>
