<svg width="48" height="16" viewBox="0 0 48 16" fill="none" xmlns="http://www.w3.org/2000/svg">
<path d="M9.425 0C8.294 0 7.2085 0.5297 6.5 1.36676C5.7915 0.5297 4.706 0 3.575 0C1.573 0 0 1.58256 0 3.59673C0 6.06866 2.21 8.08283 5.5575 11.1433L6.5 12L7.4425 11.1368C10.79 8.08283 13 6.06866 13 3.59673C13 1.58256 11.427 0 9.425 0ZM6.565 10.1689L6.5 10.2343L6.435 10.1689C3.341 7.35041 1.3 5.48665 1.3 3.59673C1.3 2.28883 2.275 1.3079 3.575 1.3079C4.576 1.3079 5.551 1.95531 5.8955 2.85123H7.111C7.449 1.95531 8.424 1.3079 9.425 1.3079C10.725 1.3079 11.7 2.28883 11.7 3.59673C11.7 5.48665 9.659 7.35041 6.565 10.1689Z" fill="#A1A6B4"/>
<path d="M22.488 1.12H23.48V10.72H25.512V12H19.848V10.72H22.136V2.544L19.848 3.408V2.128L22.488 1.12ZM27.907 10.64C27.0963 9.60533 26.691 8.24533 26.691 6.56C26.691 4.87467 27.0963 3.51467 27.907 2.48C28.7177 1.44533 29.9123 0.927999 31.491 0.927999C33.0803 0.927999 34.2803 1.44533 35.091 2.48C35.9017 3.504 36.307 4.864 36.307 6.56C36.307 8.256 35.9017 9.62133 35.091 10.656C34.2803 11.68 33.0803 12.192 31.491 12.192C29.9123 12.192 28.7177 11.6747 27.907 10.64ZM34.083 9.792C34.659 9.03467 34.947 7.95733 34.947 6.56C34.947 5.16267 34.659 4.09067 34.083 3.344C33.5177 2.58667 32.6537 2.208 31.491 2.208C30.3283 2.208 29.4643 2.58667 28.899 3.344C28.3337 4.09067 28.051 5.16267 28.051 6.56C28.051 7.95733 28.3337 9.03467 28.899 9.792C29.4643 10.5387 30.3283 10.912 31.491 10.912C32.6537 10.912 33.5177 10.5387 34.083 9.792ZM43.461 1.12H44.917V8.336H46.965V9.584H44.917V12H43.589V9.584H37.525V8.384L43.461 1.12ZM43.589 8.336V2.928L39.173 8.336H43.589Z" fill="#A1A6B4"/>
</svg>
