<svg width="39" height="16" viewBox="0 0 39 16" fill="none" xmlns="http://www.w3.org/2000/svg">
<path d="M10 9.18876C9.49333 9.18876 9.04 9.38454 8.69333 9.69127L3.94 6.98293C3.97333 6.83283 4 6.68273 4 6.5261C4 6.36948 3.97333 6.21938 3.94 6.06928L8.64 3.38705C9 3.71335 9.47333 3.91566 10 3.91566C11.1067 3.91566 12 3.04116 12 1.95783C12 0.874498 11.1067 0 10 0C8.89333 0 8 0.874498 8 1.95783C8 2.11446 8.02667 2.26456 8.06 2.41466L3.36 5.09689C3 4.77058 2.52667 4.56827 2 4.56827C0.893333 4.56827 0 5.44277 0 6.5261C0 7.60944 0.893333 8.48394 2 8.48394C2.52667 8.48394 3 8.28163 3.36 7.95532L8.10667 10.6702C8.07333 10.8072 8.05333 10.9508 8.05333 11.0944C8.05333 12.1451 8.92667 13 10 13C11.0733 13 11.9467 12.1451 11.9467 11.0944C11.9467 10.0437 11.0733 9.18876 10 9.18876ZM10 1.30522C10.3667 1.30522 10.6667 1.5989 10.6667 1.95783C10.6667 2.31677 10.3667 2.61044 10 2.61044C9.63333 2.61044 9.33333 2.31677 9.33333 1.95783C9.33333 1.5989 9.63333 1.30522 10 1.30522ZM2 7.17871C1.63333 7.17871 1.33333 6.88504 1.33333 6.5261C1.33333 6.16717 1.63333 5.87349 2 5.87349C2.36667 5.87349 2.66667 6.16717 2.66667 6.5261C2.66667 6.88504 2.36667 7.17871 2 7.17871ZM10 11.76C9.63333 11.76 9.33333 11.4664 9.33333 11.1074C9.33333 10.7485 9.63333 10.4548 10 10.4548C10.3667 10.4548 10.6667 10.7485 10.6667 11.1074C10.6667 11.4664 10.3667 11.76 10 11.76Z" fill="#A1A6B4"/>
<path d="M20.192 6.256C21.2267 5.56267 22.3627 5.216 23.6 5.216C24.592 5.216 25.4613 5.52 26.208 6.128C26.9547 6.72533 27.328 7.55733 27.328 8.624C27.328 9.744 26.9547 10.6187 26.208 11.248C25.472 11.8773 24.544 12.192 23.424 12.192C21.888 12.192 20.736 11.7173 19.968 10.768C19.2107 9.808 18.832 8.464 18.832 6.736C18.832 4.816 19.2853 3.37067 20.192 2.4C21.1093 1.41867 22.304 0.927999 23.776 0.927999C24.7253 0.927999 25.6053 1.136 26.416 1.552V2.832C25.6267 2.416 24.7573 2.208 23.808 2.208C22.8053 2.208 21.968 2.53333 21.296 3.184C20.6347 3.824 20.2667 4.848 20.192 6.256ZM20.208 7.6C20.4107 9.82933 21.4507 10.944 23.328 10.944C24.1173 10.944 24.752 10.7627 25.232 10.4C25.7227 10.0373 25.968 9.46667 25.968 8.688C25.968 7.89867 25.7173 7.33333 25.216 6.992C24.7147 6.64 24.064 6.464 23.264 6.464C22.08 6.464 21.0613 6.84267 20.208 7.6ZM29.1055 3.744C29.1055 2.976 29.4415 2.31467 30.1135 1.76C30.7855 1.20533 31.7722 0.927999 33.0735 0.927999C34.2788 0.927999 35.2495 1.22133 35.9855 1.808C36.7215 2.39467 37.1002 3.09867 37.1215 3.92C37.1535 5.04 36.6575 5.95733 35.6335 6.672C36.8815 7.29067 37.5055 8.144 37.5055 9.232C37.5055 10.064 37.1375 10.768 36.4015 11.344C35.6762 11.9093 34.5988 12.192 33.1695 12.192C31.7508 12.192 30.6522 11.8827 29.8735 11.264C29.1055 10.6453 28.7215 9.89333 28.7215 9.008C28.7215 8.47467 28.8762 7.94667 29.1855 7.424C29.5055 6.89067 29.9695 6.44267 30.5775 6.08C29.5962 5.48267 29.1055 4.704 29.1055 3.744ZM33.2335 7.104C32.6788 6.95467 32.1722 6.79467 31.7135 6.624C31.1802 6.88 30.7695 7.21067 30.4815 7.616C30.2042 8.02133 30.0655 8.43733 30.0655 8.864C30.0655 9.51467 30.3322 10.0267 30.8655 10.4C31.4095 10.7627 32.1882 10.944 33.2015 10.944C34.0548 10.944 34.7588 10.7947 35.3135 10.496C35.8788 10.1867 36.1615 9.78667 36.1615 9.296C36.1615 8.88 36.0122 8.528 35.7135 8.24C35.4255 7.94133 35.1428 7.73867 34.8655 7.632C34.5882 7.52533 34.1295 7.376 33.4895 7.184C33.3722 7.152 33.2868 7.12533 33.2335 7.104ZM35.7775 4.16C35.7775 3.59467 35.5375 3.12533 35.0575 2.752C34.5775 2.368 33.9055 2.176 33.0415 2.176C32.2522 2.176 31.6228 2.32533 31.1535 2.624C30.6842 2.912 30.4495 3.28 30.4495 3.728C30.4495 4.03733 30.5135 4.30933 30.6415 4.544C30.7802 4.768 30.9828 4.96 31.2495 5.12C31.5268 5.26933 31.7775 5.392 32.0015 5.488C32.2255 5.57333 32.5242 5.66933 32.8975 5.776C32.9402 5.78667 32.9722 5.79733 32.9935 5.808C33.0148 5.808 33.0415 5.81333 33.0735 5.824C33.1055 5.83467 33.1375 5.84533 33.1695 5.856C33.2015 5.86667 33.3828 5.92 33.7135 6.016C34.0548 6.10133 34.3162 6.17067 34.4975 6.224C35.3508 5.66933 35.7775 4.98133 35.7775 4.16Z" fill="#A1A6B4"/>
</svg>
