<svg width="28" height="16" viewBox="0 0 28 16" fill="none" xmlns="http://www.w3.org/2000/svg">
<path d="M10 9.18876C9.49333 9.18876 9.04 9.38454 8.69333 9.69127L3.94 6.98293C3.97333 6.83283 4 6.68273 4 6.5261C4 6.36948 3.97333 6.21938 3.94 6.06928L8.64 3.38705C9 3.71335 9.47333 3.91566 10 3.91566C11.1067 3.91566 12 3.04116 12 1.95783C12 0.874498 11.1067 0 10 0C8.89333 0 8 0.874498 8 1.95783C8 2.11446 8.02667 2.26456 8.06 2.41466L3.36 5.09689C3 4.77058 2.52667 4.56827 2 4.56827C0.893333 4.56827 0 5.44277 0 6.5261C0 7.60944 0.893333 8.48394 2 8.48394C2.52667 8.48394 3 8.28163 3.36 7.95532L8.10667 10.6702C8.07333 10.8072 8.05333 10.9508 8.05333 11.0944C8.05333 12.1451 8.92667 13 10 13C11.0733 13 11.9467 12.1451 11.9467 11.0944C11.9467 10.0437 11.0733 9.18876 10 9.18876ZM10 1.30522C10.3667 1.30522 10.6667 1.5989 10.6667 1.95783C10.6667 2.31677 10.3667 2.61044 10 2.61044C9.63333 2.61044 9.33333 2.31677 9.33333 1.95783C9.33333 1.5989 9.63333 1.30522 10 1.30522ZM2 7.17871C1.63333 7.17871 1.33333 6.88504 1.33333 6.5261C1.33333 6.16717 1.63333 5.87349 2 5.87349C2.36667 5.87349 2.66667 6.16717 2.66667 6.5261C2.66667 6.88504 2.36667 7.17871 2 7.17871ZM10 11.76C9.63333 11.76 9.33333 11.4664 9.33333 11.1074C9.33333 10.7485 9.63333 10.4548 10 10.4548C10.3667 10.4548 10.6667 10.7485 10.6667 11.1074C10.6667 11.4664 10.3667 11.76 10 11.76Z" fill="#A1A6B4"/>
<path d="M19.504 1.12H26.032V2.4H20.768L20.576 5.472C21.152 5.312 21.7707 5.232 22.432 5.232C22.976 5.232 23.4827 5.296 23.952 5.424C24.4213 5.54133 24.8533 5.73333 25.248 6C25.6533 6.256 25.9733 6.61867 26.208 7.088C26.4427 7.54667 26.56 8.09067 26.56 8.72C26.56 9.79733 26.16 10.6453 25.36 11.264C24.5707 11.8827 23.5627 12.192 22.336 12.192C21.0133 12.192 19.8507 11.9467 18.848 11.456V10.176C19.808 10.688 20.9173 10.944 22.176 10.944C23.0933 10.944 23.824 10.752 24.368 10.368C24.9227 9.984 25.2 9.43467 25.2 8.72C25.2 7.20533 24.1227 6.448 21.968 6.448C21.0293 6.448 20.0907 6.61867 19.152 6.96L19.504 1.12Z" fill="#A1A6B4"/>
</svg>
