<svg width="33" height="14" viewBox="0 0 33 14" fill="none" xmlns="http://www.w3.org/2000/svg">
<g clip-path="url(#clip0_24531_4184)">
<path d="M10 9.68876C9.49333 9.68876 9.04 9.88454 8.69333 10.1913L3.94 7.48293C3.97333 7.33283 4 7.18273 4 7.0261C4 6.86948 3.97333 6.71938 3.94 6.56928L8.64 3.88705C9 4.21335 9.47333 4.41566 10 4.41566C11.1067 4.41566 12 3.54116 12 2.45783C12 1.3745 11.1067 0.5 10 0.5C8.89333 0.5 8 1.3745 8 2.45783C8 2.61446 8.02667 2.76456 8.06 2.91466L3.36 5.59689C3 5.27058 2.52667 5.06827 2 5.06827C0.893333 5.06827 0 5.94277 0 7.0261C0 8.10944 0.893333 8.98394 2 8.98394C2.52667 8.98394 3 8.78163 3.36 8.45532L8.10667 11.1702C8.07333 11.3072 8.05333 11.4508 8.05333 11.5944C8.05333 12.6451 8.92667 13.5 10 13.5C11.0733 13.5 11.9467 12.6451 11.9467 11.5944C11.9467 10.5437 11.0733 9.68876 10 9.68876ZM10 1.80522C10.3667 1.80522 10.6667 2.0989 10.6667 2.45783C10.6667 2.81677 10.3667 3.11044 10 3.11044C9.63333 3.11044 9.33333 2.81677 9.33333 2.45783C9.33333 2.0989 9.63333 1.80522 10 1.80522ZM2 7.67871C1.63333 7.67871 1.33333 7.38504 1.33333 7.0261C1.33333 6.66717 1.63333 6.37349 2 6.37349C2.36667 6.37349 2.66667 6.66717 2.66667 7.0261C2.66667 7.38504 2.36667 7.67871 2 7.67871ZM10 12.26C9.63333 12.26 9.33333 11.9664 9.33333 11.6074C9.33333 11.2485 9.63333 10.9548 10 10.9548C10.3667 10.9548 10.6667 11.2485 10.6667 11.6074C10.6667 11.9664 10.3667 12.26 10 12.26Z" fill="#A1A6B4"/>
<path d="M22.752 1.84H23.844V7.252H25.38V8.188H23.844V10H22.848V8.188H18.3V7.288L22.752 1.84ZM22.848 7.252V3.196L19.536 7.252H22.848ZM26.5504 2.488C27.3104 1.96 28.1824 1.696 29.1664 1.696C30.0144 1.696 30.6904 1.888 31.1944 2.272C31.6984 2.656 31.9504 3.192 31.9504 3.88C31.9504 4.208 31.8864 4.516 31.7584 4.804C31.6384 5.092 31.4544 5.356 31.2064 5.596C30.9664 5.836 30.7304 6.04 30.4984 6.208C30.2744 6.368 29.9904 6.548 29.6464 6.748C29.6064 6.772 29.4824 6.844 29.2744 6.964C29.0744 7.084 28.9464 7.16 28.8904 7.192C28.8424 7.224 28.7304 7.296 28.5544 7.408C28.3864 7.512 28.2744 7.588 28.2184 7.636C28.1704 7.684 28.0824 7.76 27.9544 7.864C27.8344 7.968 27.7504 8.056 27.7024 8.128C27.6624 8.2 27.6064 8.292 27.5344 8.404C27.4704 8.508 27.4264 8.612 27.4024 8.716C27.3784 8.82 27.3664 8.932 27.3664 9.052L32.0104 9.04V10H26.2624V9.52C26.2624 9.072 26.3344 8.668 26.4784 8.308C26.6224 7.94 26.8264 7.628 27.0904 7.372C27.3624 7.108 27.6304 6.888 27.8944 6.712C28.1584 6.528 28.4664 6.332 28.8184 6.124C28.8984 6.084 28.9584 6.052 28.9984 6.028C29.7264 5.604 30.2024 5.28 30.4264 5.056C30.7704 4.704 30.9424 4.308 30.9424 3.868C30.9424 3.468 30.7784 3.164 30.4504 2.956C30.1304 2.74 29.6744 2.632 29.0824 2.632C28.2184 2.632 27.3744 2.92 26.5504 3.496V2.488Z" fill="#A1A6B4"/>
</g>
<defs>
<clipPath id="clip0_24531_4184">
<rect width="33" height="13" fill="white" transform="translate(0 0.5)"/>
</clipPath>
</defs>
</svg>
