<svg width="29" height="16" viewBox="0 0 29 16" fill="none" xmlns="http://www.w3.org/2000/svg">
<path d="M10 9.18876C9.49333 9.18876 9.04 9.38454 8.69333 9.69127L3.94 6.98293C3.97333 6.83283 4 6.68273 4 6.5261C4 6.36948 3.97333 6.21938 3.94 6.06928L8.64 3.38705C9 3.71335 9.47333 3.91566 10 3.91566C11.1067 3.91566 12 3.04116 12 1.95783C12 0.874498 11.1067 0 10 0C8.89333 0 8 0.874498 8 1.95783C8 2.11446 8.02667 2.26456 8.06 2.41466L3.36 5.09689C3 4.77058 2.52667 4.56827 2 4.56827C0.893333 4.56827 0 5.44277 0 6.5261C0 7.60944 0.893333 8.48394 2 8.48394C2.52667 8.48394 3 8.28163 3.36 7.95532L8.10667 10.6702C8.07333 10.8072 8.05333 10.9508 8.05333 11.0944C8.05333 12.1451 8.92667 13 10 13C11.0733 13 11.9467 12.1451 11.9467 11.0944C11.9467 10.0437 11.0733 9.18876 10 9.18876ZM10 1.30522C10.3667 1.30522 10.6667 1.5989 10.6667 1.95783C10.6667 2.31677 10.3667 2.61044 10 2.61044C9.63333 2.61044 9.33333 2.31677 9.33333 1.95783C9.33333 1.5989 9.63333 1.30522 10 1.30522ZM2 7.17871C1.63333 7.17871 1.33333 6.88504 1.33333 6.5261C1.33333 6.16717 1.63333 5.87349 2 5.87349C2.36667 5.87349 2.66667 6.16717 2.66667 6.5261C2.66667 6.88504 2.36667 7.17871 2 7.17871ZM10 11.76C9.63333 11.76 9.33333 11.4664 9.33333 11.1074C9.33333 10.7485 9.63333 10.4548 10 10.4548C10.3667 10.4548 10.6667 10.7485 10.6667 11.1074C10.6667 11.4664 10.3667 11.76 10 11.76Z" fill="#A1A6B4"/>
<path d="M19.168 3.744C19.168 2.976 19.504 2.31467 20.176 1.76C20.848 1.20533 21.8347 0.927999 23.136 0.927999C24.3413 0.927999 25.312 1.22133 26.048 1.808C26.784 2.39467 27.1627 3.09867 27.184 3.92C27.216 5.04 26.72 5.95733 25.696 6.672C26.944 7.29067 27.568 8.144 27.568 9.232C27.568 10.064 27.2 10.768 26.464 11.344C25.7387 11.9093 24.6613 12.192 23.232 12.192C21.8133 12.192 20.7147 11.8827 19.936 11.264C19.168 10.6453 18.784 9.89333 18.784 9.008C18.784 8.47467 18.9387 7.94667 19.248 7.424C19.568 6.89067 20.032 6.44267 20.64 6.08C19.6587 5.48267 19.168 4.704 19.168 3.744ZM23.296 7.104C22.7413 6.95467 22.2347 6.79467 21.776 6.624C21.2427 6.88 20.832 7.21067 20.544 7.616C20.2667 8.02133 20.128 8.43733 20.128 8.864C20.128 9.51467 20.3947 10.0267 20.928 10.4C21.472 10.7627 22.2507 10.944 23.264 10.944C24.1173 10.944 24.8213 10.7947 25.376 10.496C25.9413 10.1867 26.224 9.78667 26.224 9.296C26.224 8.88 26.0747 8.528 25.776 8.24C25.488 7.94133 25.2053 7.73867 24.928 7.632C24.6507 7.52533 24.192 7.376 23.552 7.184C23.4347 7.152 23.3493 7.12533 23.296 7.104ZM25.84 4.16C25.84 3.59467 25.6 3.12533 25.12 2.752C24.64 2.368 23.968 2.176 23.104 2.176C22.3147 2.176 21.6853 2.32533 21.216 2.624C20.7467 2.912 20.512 3.28 20.512 3.728C20.512 4.03733 20.576 4.30933 20.704 4.544C20.8427 4.768 21.0453 4.96 21.312 5.12C21.5893 5.26933 21.84 5.392 22.064 5.488C22.288 5.57333 22.5867 5.66933 22.96 5.776C23.0027 5.78667 23.0347 5.79733 23.056 5.808C23.0773 5.808 23.104 5.81333 23.136 5.824C23.168 5.83467 23.2 5.84533 23.232 5.856C23.264 5.86667 23.4453 5.92 23.776 6.016C24.1173 6.10133 24.3787 6.17067 24.56 6.224C25.4133 5.66933 25.84 4.98133 25.84 4.16Z" fill="#A1A6B4"/>
</svg>
