<svg width="38" height="16" viewBox="0 0 38 16" fill="none" xmlns="http://www.w3.org/2000/svg">
<path d="M10 9.18876C9.49333 9.18876 9.04 9.38454 8.69333 9.69127L3.94 6.98293C3.97333 6.83283 4 6.68273 4 6.5261C4 6.36948 3.97333 6.21938 3.94 6.06928L8.64 3.38705C9 3.71335 9.47333 3.91566 10 3.91566C11.1067 3.91566 12 3.04116 12 1.95783C12 0.874498 11.1067 0 10 0C8.89333 0 8 0.874498 8 1.95783C8 2.11446 8.02667 2.26456 8.06 2.41466L3.36 5.09689C3 4.77058 2.52667 4.56827 2 4.56827C0.893333 4.56827 0 5.44277 0 6.5261C0 7.60944 0.893333 8.48394 2 8.48394C2.52667 8.48394 3 8.28163 3.36 7.95532L8.10667 10.6702C8.07333 10.8072 8.05333 10.9508 8.05333 11.0944C8.05333 12.1451 8.92667 13 10 13C11.0733 13 11.9467 12.1451 11.9467 11.0944C11.9467 10.0437 11.0733 9.18876 10 9.18876ZM10 1.30522C10.3667 1.30522 10.6667 1.5989 10.6667 1.95783C10.6667 2.31677 10.3667 2.61044 10 2.61044C9.63333 2.61044 9.33333 2.31677 9.33333 1.95783C9.33333 1.5989 9.63333 1.30522 10 1.30522ZM2 7.17871C1.63333 7.17871 1.33333 6.88504 1.33333 6.5261C1.33333 6.16717 1.63333 5.87349 2 5.87349C2.36667 5.87349 2.66667 6.16717 2.66667 6.5261C2.66667 6.88504 2.36667 7.17871 2 7.17871ZM10 11.76C9.63333 11.76 9.33333 11.4664 9.33333 11.1074C9.33333 10.7485 9.63333 10.4548 10 10.4548C10.3667 10.4548 10.6667 10.7485 10.6667 11.1074C10.6667 11.4664 10.3667 11.76 10 11.76Z" fill="#A1A6B4"/>
<path d="M24.336 1.12H25.792V8.336H27.84V9.584H25.792V12H24.464V9.584H18.4V8.384L24.336 1.12ZM24.464 8.336V2.928L20.048 8.336H24.464ZM29.4005 1.984C30.4138 1.28 31.5765 0.927999 32.8885 0.927999C34.0192 0.927999 34.9205 1.184 35.5925 1.696C36.2645 2.208 36.6005 2.92267 36.6005 3.84C36.6005 4.27733 36.5152 4.688 36.3445 5.072C36.1845 5.456 35.9392 5.808 35.6085 6.128C35.2885 6.448 34.9738 6.72 34.6645 6.944C34.3658 7.15733 33.9872 7.39733 33.5285 7.664C33.4752 7.696 33.3098 7.792 33.0325 7.952C32.7658 8.112 32.5952 8.21333 32.5205 8.256C32.4565 8.29867 32.3072 8.39467 32.0725 8.544C31.8485 8.68267 31.6992 8.784 31.6245 8.848C31.5605 8.912 31.4432 9.01333 31.2725 9.152C31.1125 9.29067 31.0005 9.408 30.9365 9.504C30.8832 9.6 30.8085 9.72267 30.7125 9.872C30.6272 10.0107 30.5685 10.1493 30.5365 10.288C30.5045 10.4267 30.4885 10.576 30.4885 10.736L36.6805 10.72V12H29.0165V11.36C29.0165 10.7627 29.1125 10.224 29.3045 9.744C29.4965 9.25333 29.7685 8.83733 30.1205 8.496C30.4832 8.144 30.8405 7.85067 31.1925 7.616C31.5445 7.37067 31.9552 7.10933 32.4245 6.832C32.5312 6.77867 32.6112 6.736 32.6645 6.704C33.6352 6.13867 34.2698 5.70667 34.5685 5.408C35.0272 4.93867 35.2565 4.41067 35.2565 3.824C35.2565 3.29067 35.0378 2.88533 34.6005 2.608C34.1738 2.32 33.5658 2.176 32.7765 2.176C31.6245 2.176 30.4992 2.56 29.4005 3.328V1.984Z" fill="#A1A6B4"/>
</svg>
