<svg width="31" height="14" viewBox="0 0 31 14" fill="none" xmlns="http://www.w3.org/2000/svg">
<g clip-path="url(#clip0_24531_4166)">
<path d="M10 9.68876C9.49333 9.68876 9.04 9.88454 8.69333 10.1913L3.94 7.48293C3.97333 7.33283 4 7.18273 4 7.0261C4 6.86948 3.97333 6.71938 3.94 6.56928L8.64 3.88705C9 4.21335 9.47333 4.41566 10 4.41566C11.1067 4.41566 12 3.54116 12 2.45783C12 1.3745 11.1067 0.5 10 0.5C8.89333 0.5 8 1.3745 8 2.45783C8 2.61446 8.02667 2.76456 8.06 2.91466L3.36 5.59689C3 5.27058 2.52667 5.06827 2 5.06827C0.893333 5.06827 0 5.94277 0 7.0261C0 8.10944 0.893333 8.98394 2 8.98394C2.52667 8.98394 3 8.78163 3.36 8.45532L8.10667 11.1702C8.07333 11.3072 8.05333 11.4508 8.05333 11.5944C8.05333 12.6451 8.92667 13.5 10 13.5C11.0733 13.5 11.9467 12.6451 11.9467 11.5944C11.9467 10.5437 11.0733 9.68876 10 9.68876ZM10 1.80522C10.3667 1.80522 10.6667 2.0989 10.6667 2.45783C10.6667 2.81677 10.3667 3.11044 10 3.11044C9.63333 3.11044 9.33333 2.81677 9.33333 2.45783C9.33333 2.0989 9.63333 1.80522 10 1.80522ZM2 7.67871C1.63333 7.67871 1.33333 7.38504 1.33333 7.0261C1.33333 6.66717 1.63333 6.37349 2 6.37349C2.36667 6.37349 2.66667 6.66717 2.66667 7.0261C2.66667 7.38504 2.36667 7.67871 2 7.67871ZM10 12.26C9.63333 12.26 9.33333 11.9664 9.33333 11.6074C9.33333 11.2485 9.63333 10.9548 10 10.9548C10.3667 10.9548 10.6667 11.2485 10.6667 11.6074C10.6667 11.9664 10.3667 12.26 10 12.26Z" fill="#A1A6B4"/>
<path d="M20.616 1.84H21.36V9.04H22.884V10H18.636V9.04H20.352V2.908L18.636 3.556V2.596L20.616 1.84ZM24.0323 3.808C24.0323 3.232 24.2843 2.736 24.7883 2.32C25.2923 1.904 26.0323 1.696 27.0083 1.696C27.9123 1.696 28.6403 1.916 29.1923 2.356C29.7443 2.796 30.0283 3.324 30.0443 3.94C30.0683 4.78 29.6963 5.468 28.9283 6.004C29.8643 6.468 30.3323 7.108 30.3323 7.924C30.3323 8.548 30.0563 9.076 29.5043 9.508C28.9603 9.932 28.1523 10.144 27.0803 10.144C26.0163 10.144 25.1923 9.912 24.6083 9.448C24.0323 8.984 23.7443 8.42 23.7443 7.756C23.7443 7.356 23.8603 6.96 24.0923 6.568C24.3323 6.168 24.6803 5.832 25.1363 5.56C24.4003 5.112 24.0323 4.528 24.0323 3.808ZM27.1283 6.328C26.7123 6.216 26.3323 6.096 25.9883 5.968C25.5883 6.16 25.2803 6.408 25.0643 6.712C24.8563 7.016 24.7523 7.328 24.7523 7.648C24.7523 8.136 24.9523 8.52 25.3523 8.8C25.7603 9.072 26.3443 9.208 27.1043 9.208C27.7443 9.208 28.2723 9.096 28.6883 8.872C29.1123 8.64 29.3242 8.34 29.3242 7.972C29.3242 7.66 29.2123 7.396 28.9883 7.18C28.7723 6.956 28.5603 6.804 28.3523 6.724C28.1443 6.644 27.8003 6.532 27.3203 6.388C27.2323 6.364 27.1683 6.344 27.1283 6.328ZM29.0363 4.12C29.0363 3.696 28.8563 3.344 28.4963 3.064C28.1363 2.776 27.6323 2.632 26.9843 2.632C26.3923 2.632 25.9203 2.744 25.5683 2.968C25.2163 3.184 25.0403 3.46 25.0403 3.796C25.0403 4.028 25.0883 4.232 25.1843 4.408C25.2883 4.576 25.4403 4.72 25.6403 4.84C25.8483 4.952 26.0363 5.044 26.2043 5.116C26.3723 5.18 26.5963 5.252 26.8763 5.332C26.9083 5.34 26.9323 5.348 26.9483 5.356C26.9643 5.356 26.9843 5.36 27.0083 5.368C27.0323 5.376 27.0563 5.384 27.0803 5.392C27.1043 5.4 27.2403 5.44 27.4883 5.512C27.7443 5.576 27.9403 5.628 28.0763 5.668C28.7163 5.252 29.0363 4.736 29.0363 4.12Z" fill="#A1A6B4"/>
</g>
<defs>
<clipPath id="clip0_24531_4166">
<rect width="31" height="13" fill="white" transform="translate(0 0.5)"/>
</clipPath>
</defs>
</svg>
