<svg width="35" height="16" viewBox="0 0 35 16" fill="none" xmlns="http://www.w3.org/2000/svg">
<path d="M10 9.18876C9.49333 9.18876 9.04 9.38454 8.69333 9.69127L3.94 6.98293C3.97333 6.83283 4 6.68273 4 6.5261C4 6.36948 3.97333 6.21938 3.94 6.06928L8.64 3.38705C9 3.71335 9.47333 3.91566 10 3.91566C11.1067 3.91566 12 3.04116 12 1.95783C12 0.874498 11.1067 0 10 0C8.89333 0 8 0.874498 8 1.95783C8 2.11446 8.02667 2.26456 8.06 2.41466L3.36 5.09689C3 4.77058 2.52667 4.56827 2 4.56827C0.893333 4.56827 0 5.44277 0 6.5261C0 7.60944 0.893333 8.48394 2 8.48394C2.52667 8.48394 3 8.28163 3.36 7.95532L8.10667 10.6702C8.07333 10.8072 8.05333 10.9508 8.05333 11.0944C8.05333 12.1451 8.92667 13 10 13C11.0733 13 11.9467 12.1451 11.9467 11.0944C11.9467 10.0437 11.0733 9.18876 10 9.18876ZM10 1.30522C10.3667 1.30522 10.6667 1.5989 10.6667 1.95783C10.6667 2.31677 10.3667 2.61044 10 2.61044C9.63333 2.61044 9.33333 2.31677 9.33333 1.95783C9.33333 1.5989 9.63333 1.30522 10 1.30522ZM2 7.17871C1.63333 7.17871 1.33333 6.88504 1.33333 6.5261C1.33333 6.16717 1.63333 5.87349 2 5.87349C2.36667 5.87349 2.66667 6.16717 2.66667 6.5261C2.66667 6.88504 2.36667 7.17871 2 7.17871ZM10 11.76C9.63333 11.76 9.33333 11.4664 9.33333 11.1074C9.33333 10.7485 9.63333 10.4548 10 10.4548C10.3667 10.4548 10.6667 10.7485 10.6667 11.1074C10.6667 11.4664 10.3667 11.76 10 11.76Z" fill="#A1A6B4"/>
<path d="M21.488 1.12H22.48V10.72H24.512V12H18.848V10.72H21.136V2.544L18.848 3.408V2.128L21.488 1.12ZM25.963 1.984C26.9763 1.28 28.139 0.927999 29.451 0.927999C30.5817 0.927999 31.483 1.184 32.155 1.696C32.827 2.208 33.163 2.92267 33.163 3.84C33.163 4.27733 33.0777 4.688 32.907 5.072C32.747 5.456 32.5017 5.808 32.171 6.128C31.851 6.448 31.5363 6.72 31.227 6.944C30.9283 7.15733 30.5497 7.39733 30.091 7.664C30.0377 7.696 29.8723 7.792 29.595 7.952C29.3283 8.112 29.1577 8.21333 29.083 8.256C29.019 8.29867 28.8697 8.39467 28.635 8.544C28.411 8.68267 28.2617 8.784 28.187 8.848C28.123 8.912 28.0057 9.01333 27.835 9.152C27.675 9.29067 27.563 9.408 27.499 9.504C27.4457 9.6 27.371 9.72267 27.275 9.872C27.1897 10.0107 27.131 10.1493 27.099 10.288C27.067 10.4267 27.051 10.576 27.051 10.736L33.243 10.72V12H25.579V11.36C25.579 10.7627 25.675 10.224 25.867 9.744C26.059 9.25333 26.331 8.83733 26.683 8.496C27.0457 8.144 27.403 7.85067 27.755 7.616C28.107 7.37067 28.5177 7.10933 28.987 6.832C29.0937 6.77867 29.1737 6.736 29.227 6.704C30.1977 6.13867 30.8323 5.70667 31.131 5.408C31.5897 4.93867 31.819 4.41067 31.819 3.824C31.819 3.29067 31.6003 2.88533 31.163 2.608C30.7363 2.32 30.1283 2.176 29.339 2.176C28.187 2.176 27.0617 2.56 25.963 3.328V1.984Z" fill="#A1A6B4"/>
</svg>
