<svg width="25" height="14" viewBox="0 0 25 14" fill="none" xmlns="http://www.w3.org/2000/svg">
<g clip-path="url(#clip0_24531_4202)">
<path d="M10 9.68876C9.49333 9.68876 9.04 9.88454 8.69333 10.1913L3.94 7.48293C3.97333 7.33283 4 7.18273 4 7.0261C4 6.86948 3.97333 6.71938 3.94 6.56928L8.64 3.88705C9 4.21335 9.47333 4.41566 10 4.41566C11.1067 4.41566 12 3.54116 12 2.45783C12 1.3745 11.1067 0.5 10 0.5C8.89333 0.5 8 1.3745 8 2.45783C8 2.61446 8.02667 2.76456 8.06 2.91466L3.36 5.59689C3 5.27058 2.52667 5.06827 2 5.06827C0.893333 5.06827 0 5.94277 0 7.0261C0 8.10944 0.893333 8.98394 2 8.98394C2.52667 8.98394 3 8.78163 3.36 8.45532L8.10667 11.1702C8.07333 11.3072 8.05333 11.4508 8.05333 11.5944C8.05333 12.6451 8.92667 13.5 10 13.5C11.0733 13.5 11.9467 12.6451 11.9467 11.5944C11.9467 10.5437 11.0733 9.68876 10 9.68876ZM10 1.80522C10.3667 1.80522 10.6667 2.0989 10.6667 2.45783C10.6667 2.81677 10.3667 3.11044 10 3.11044C9.63333 3.11044 9.33333 2.81677 9.33333 2.45783C9.33333 2.0989 9.63333 1.80522 10 1.80522ZM2 7.67871C1.63333 7.67871 1.33333 7.38504 1.33333 7.0261C1.33333 6.66717 1.63333 6.37349 2 6.37349C2.36667 6.37349 2.66667 6.66717 2.66667 7.0261C2.66667 7.38504 2.36667 7.67871 2 7.67871ZM10 12.26C9.63333 12.26 9.33333 11.9664 9.33333 11.6074C9.33333 11.2485 9.63333 10.9548 10 10.9548C10.3667 10.9548 10.6667 11.2485 10.6667 11.6074C10.6667 11.9664 10.3667 12.26 10 12.26Z" fill="#A1A6B4"/>
<path d="M19.128 1.84H24.024V2.8H20.076L19.932 5.104C20.364 4.984 20.828 4.924 21.324 4.924C21.732 4.924 22.112 4.972 22.464 5.068C22.816 5.156 23.14 5.3 23.436 5.5C23.74 5.692 23.98 5.964 24.156 6.316C24.332 6.66 24.42 7.068 24.42 7.54C24.42 8.348 24.12 8.984 23.52 9.448C22.928 9.912 22.172 10.144 21.252 10.144C20.26 10.144 19.388 9.96 18.636 9.592V8.632C19.356 9.016 20.188 9.208 21.132 9.208C21.82 9.208 22.368 9.064 22.776 8.776C23.192 8.488 23.4 8.076 23.4 7.54C23.4 6.404 22.592 5.836 20.976 5.836C20.272 5.836 19.568 5.964 18.864 6.22L19.128 1.84Z" fill="#A1A6B4"/>
</g>
<defs>
<clipPath id="clip0_24531_4202">
<rect width="25" height="13" fill="white" transform="translate(0 0.5)"/>
</clipPath>
</defs>
</svg>
