<svg width="34" height="14" viewBox="0 0 34 14" fill="none" xmlns="http://www.w3.org/2000/svg">
<g clip-path="url(#clip0_24531_4147)">
<path d="M10 9.68876C9.49333 9.68876 9.04 9.88454 8.69333 10.1913L3.94 7.48293C3.97333 7.33283 4 7.18273 4 7.0261C4 6.86948 3.97333 6.71938 3.94 6.56928L8.64 3.88705C9 4.21335 9.47333 4.41566 10 4.41566C11.1067 4.41566 12 3.54116 12 2.45783C12 1.3745 11.1067 0.5 10 0.5C8.89333 0.5 8 1.3745 8 2.45783C8 2.61446 8.02667 2.76456 8.06 2.91466L3.36 5.59689C3 5.27058 2.52667 5.06827 2 5.06827C0.893333 5.06827 0 5.94277 0 7.0261C0 8.10944 0.893333 8.98394 2 8.98394C2.52667 8.98394 3 8.78163 3.36 8.45532L8.10667 11.1702C8.07333 11.3072 8.05333 11.4508 8.05333 11.5944C8.05333 12.6451 8.92667 13.5 10 13.5C11.0733 13.5 11.9467 12.6451 11.9467 11.5944C11.9467 10.5437 11.0733 9.68876 10 9.68876ZM10 1.80522C10.3667 1.80522 10.6667 2.0989 10.6667 2.45783C10.6667 2.81677 10.3667 3.11044 10 3.11044C9.63333 3.11044 9.33333 2.81677 9.33333 2.45783C9.33333 2.0989 9.63333 1.80522 10 1.80522ZM2 7.67871C1.63333 7.67871 1.33333 7.38504 1.33333 7.0261C1.33333 6.66717 1.63333 6.37349 2 6.37349C2.36667 6.37349 2.66667 6.66717 2.66667 7.0261C2.66667 7.38504 2.36667 7.67871 2 7.67871ZM10 12.26C9.63333 12.26 9.33333 11.9664 9.33333 11.6074C9.33333 11.2485 9.63333 10.9548 10 10.9548C10.3667 10.9548 10.6667 11.2485 10.6667 11.6074C10.6667 11.9664 10.3667 12.26 10 12.26Z" fill="#A1A6B4"/>
<path d="M19.644 5.692C20.42 5.172 21.272 4.912 22.2 4.912C22.944 4.912 23.596 5.14 24.156 5.596C24.716 6.044 24.996 6.668 24.996 7.468C24.996 8.308 24.716 8.964 24.156 9.436C23.604 9.908 22.908 10.144 22.068 10.144C20.916 10.144 20.052 9.788 19.476 9.076C18.908 8.356 18.624 7.348 18.624 6.052C18.624 4.612 18.964 3.528 19.644 2.8C20.332 2.064 21.228 1.696 22.332 1.696C23.044 1.696 23.704 1.852 24.312 2.164V3.124C23.72 2.812 23.068 2.656 22.356 2.656C21.604 2.656 20.976 2.9 20.472 3.388C19.976 3.868 19.7 4.636 19.644 5.692ZM19.656 6.7C19.808 8.372 20.588 9.208 21.996 9.208C22.588 9.208 23.064 9.072 23.424 8.8C23.792 8.528 23.976 8.1 23.976 7.516C23.976 6.924 23.788 6.5 23.412 6.244C23.036 5.98 22.548 5.848 21.948 5.848C21.06 5.848 20.296 6.132 19.656 6.7ZM26.3291 3.808C26.3291 3.232 26.5811 2.736 27.0851 2.32C27.5891 1.904 28.3291 1.696 29.3051 1.696C30.2091 1.696 30.9371 1.916 31.4891 2.356C32.0411 2.796 32.3251 3.324 32.3411 3.94C32.3651 4.78 31.9931 5.468 31.2251 6.004C32.1611 6.468 32.6291 7.108 32.6291 7.924C32.6291 8.548 32.3531 9.076 31.8011 9.508C31.2571 9.932 30.4491 10.144 29.3771 10.144C28.3131 10.144 27.4891 9.912 26.9051 9.448C26.3291 8.984 26.0411 8.42 26.0411 7.756C26.0411 7.356 26.1571 6.96 26.3891 6.568C26.6291 6.168 26.9771 5.832 27.4331 5.56C26.6971 5.112 26.3291 4.528 26.3291 3.808ZM29.4251 6.328C29.0091 6.216 28.6291 6.096 28.2851 5.968C27.8851 6.16 27.5771 6.408 27.3611 6.712C27.1531 7.016 27.0491 7.328 27.0491 7.648C27.0491 8.136 27.2491 8.52 27.6491 8.8C28.0571 9.072 28.6411 9.208 29.4011 9.208C30.0411 9.208 30.5691 9.096 30.9851 8.872C31.4091 8.64 31.6211 8.34 31.6211 7.972C31.6211 7.66 31.5091 7.396 31.2851 7.18C31.0691 6.956 30.8571 6.804 30.6491 6.724C30.4411 6.644 30.0971 6.532 29.6171 6.388C29.5291 6.364 29.4651 6.344 29.4251 6.328ZM31.3331 4.12C31.3331 3.696 31.1531 3.344 30.7931 3.064C30.4331 2.776 29.9291 2.632 29.2811 2.632C28.6891 2.632 28.2171 2.744 27.8651 2.968C27.5131 3.184 27.3371 3.46 27.3371 3.796C27.3371 4.028 27.3851 4.232 27.4811 4.408C27.5851 4.576 27.7371 4.72 27.9371 4.84C28.1451 4.952 28.3331 5.044 28.5011 5.116C28.6691 5.18 28.8931 5.252 29.1731 5.332C29.2051 5.34 29.2291 5.348 29.2451 5.356C29.2611 5.356 29.2811 5.36 29.3051 5.368C29.3291 5.376 29.3531 5.384 29.3771 5.392C29.4011 5.4 29.5371 5.44 29.7851 5.512C30.0411 5.576 30.2371 5.628 30.3731 5.668C31.0131 5.252 31.3331 4.736 31.3331 4.12Z" fill="#A1A6B4"/>
</g>
<defs>
<clipPath id="clip0_24531_4147">
<rect width="34" height="13" fill="white" transform="translate(0 0.5)"/>
</clipPath>
</defs>
</svg>
