<svg width="36" height="16" viewBox="0 0 36 16" fill="none" xmlns="http://www.w3.org/2000/svg">
<path d="M10 9.18876C9.49333 9.18876 9.04 9.38454 8.69333 9.69127L3.94 6.98293C3.97333 6.83283 4 6.68273 4 6.5261C4 6.36948 3.97333 6.21938 3.94 6.06928L8.64 3.38705C9 3.71335 9.47333 3.91566 10 3.91566C11.1067 3.91566 12 3.04116 12 1.95783C12 0.874498 11.1067 0 10 0C8.89333 0 8 0.874498 8 1.95783C8 2.11446 8.02667 2.26456 8.06 2.41466L3.36 5.09689C3 4.77058 2.52667 4.56827 2 4.56827C0.893333 4.56827 0 5.44277 0 6.5261C0 7.60944 0.893333 8.48394 2 8.48394C2.52667 8.48394 3 8.28163 3.36 7.95532L8.10667 10.6702C8.07333 10.8072 8.05333 10.9508 8.05333 11.0944C8.05333 12.1451 8.92667 13 10 13C11.0733 13 11.9467 12.1451 11.9467 11.0944C11.9467 10.0437 11.0733 9.18876 10 9.18876ZM10 1.30522C10.3667 1.30522 10.6667 1.5989 10.6667 1.95783C10.6667 2.31677 10.3667 2.61044 10 2.61044C9.63333 2.61044 9.33333 2.31677 9.33333 1.95783C9.33333 1.5989 9.63333 1.30522 10 1.30522ZM2 7.17871C1.63333 7.17871 1.33333 6.88504 1.33333 6.5261C1.33333 6.16717 1.63333 5.87349 2 5.87349C2.36667 5.87349 2.66667 6.16717 2.66667 6.5261C2.66667 6.88504 2.36667 7.17871 2 7.17871ZM10 11.76C9.63333 11.76 9.33333 11.4664 9.33333 11.1074C9.33333 10.7485 9.63333 10.4548 10 10.4548C10.3667 10.4548 10.6667 10.7485 10.6667 11.1074C10.6667 11.4664 10.3667 11.76 10 11.76Z" fill="#A1A6B4"/>
<path d="M21.488 1.12H22.48V10.72H24.512V12H18.848V10.72H21.136V2.544L18.848 3.408V2.128L21.488 1.12ZM26.043 3.744C26.043 2.976 26.379 2.31467 27.051 1.76C27.723 1.20533 28.7097 0.927999 30.011 0.927999C31.2163 0.927999 32.187 1.22133 32.923 1.808C33.659 2.39467 34.0377 3.09867 34.059 3.92C34.091 5.04 33.595 5.95733 32.571 6.672C33.819 7.29067 34.443 8.144 34.443 9.232C34.443 10.064 34.075 10.768 33.339 11.344C32.6137 11.9093 31.5363 12.192 30.107 12.192C28.6883 12.192 27.5897 11.8827 26.811 11.264C26.043 10.6453 25.659 9.89333 25.659 9.008C25.659 8.47467 25.8137 7.94667 26.123 7.424C26.443 6.89067 26.907 6.44267 27.515 6.08C26.5337 5.48267 26.043 4.704 26.043 3.744ZM30.171 7.104C29.6163 6.95467 29.1097 6.79467 28.651 6.624C28.1177 6.88 27.707 7.21067 27.419 7.616C27.1417 8.02133 27.003 8.43733 27.003 8.864C27.003 9.51467 27.2697 10.0267 27.803 10.4C28.347 10.7627 29.1257 10.944 30.139 10.944C30.9923 10.944 31.6963 10.7947 32.251 10.496C32.8163 10.1867 33.099 9.78667 33.099 9.296C33.099 8.88 32.9497 8.528 32.651 8.24C32.363 7.94133 32.0803 7.73867 31.803 7.632C31.5257 7.52533 31.067 7.376 30.427 7.184C30.3097 7.152 30.2243 7.12533 30.171 7.104ZM32.715 4.16C32.715 3.59467 32.475 3.12533 31.995 2.752C31.515 2.368 30.843 2.176 29.979 2.176C29.1897 2.176 28.5603 2.32533 28.091 2.624C27.6217 2.912 27.387 3.28 27.387 3.728C27.387 4.03733 27.451 4.30933 27.579 4.544C27.7177 4.768 27.9203 4.96 28.187 5.12C28.4643 5.26933 28.715 5.392 28.939 5.488C29.163 5.57333 29.4617 5.66933 29.835 5.776C29.8777 5.78667 29.9097 5.79733 29.931 5.808C29.9523 5.808 29.979 5.81333 30.011 5.824C30.043 5.83467 30.075 5.84533 30.107 5.856C30.139 5.86667 30.3203 5.92 30.651 6.016C30.9923 6.10133 31.2537 6.17067 31.435 6.224C32.2883 5.66933 32.715 4.98133 32.715 4.16Z" fill="#A1A6B4"/>
</svg>
