<svg width="35" height="16" viewBox="0 0 35 16" fill="none" xmlns="http://www.w3.org/2000/svg">
<path fill-rule="evenodd" clip-rule="evenodd" d="M1.3 11.331L8.29606 6.5L1.3 1.66897V11.331ZM0.666238 1.23131L0.669532 1.23361L0.666238 1.23131ZM1.41031 12.8347L9.64301 7.14971C10.119 6.82485 10.119 6.17514 9.64301 5.85029L1.41031 0.165315C0.828559 -0.240754 0 0.149072 0 0.815026V12.185C0 12.8509 0.828559 13.2408 1.41031 12.8347Z" fill="#A1A6B4"/>
<path d="M17.504 1.12H24.032V2.4H18.768L18.576 5.472C19.152 5.312 19.7707 5.232 20.432 5.232C20.976 5.232 21.4827 5.296 21.952 5.424C22.4213 5.54133 22.8533 5.73333 23.248 6C23.6533 6.256 23.9733 6.61867 24.208 7.088C24.4427 7.54667 24.56 8.09067 24.56 8.72C24.56 9.79733 24.16 10.6453 23.36 11.264C22.5707 11.8827 21.5627 12.192 20.336 12.192C19.0133 12.192 17.8507 11.9467 16.848 11.456V10.176C17.808 10.688 18.9173 10.944 20.176 10.944C21.0933 10.944 21.824 10.752 22.368 10.368C22.9227 9.984 23.2 9.43467 23.2 8.72C23.2 7.20533 22.1227 6.448 19.968 6.448C19.0293 6.448 18.0907 6.61867 17.152 6.96L17.504 1.12ZM26.7696 1.12H33.2976V2.4H28.0336L27.8416 5.472C28.4176 5.312 29.0363 5.232 29.6976 5.232C30.2416 5.232 30.7483 5.296 31.2176 5.424C31.687 5.54133 32.119 5.73333 32.5136 6C32.919 6.256 33.239 6.61867 33.4736 7.088C33.7083 7.54667 33.8256 8.09067 33.8256 8.72C33.8256 9.79733 33.4256 10.6453 32.6256 11.264C31.8363 11.8827 30.8283 12.192 29.6016 12.192C28.279 12.192 27.1163 11.9467 26.1136 11.456V10.176C27.0736 10.688 28.183 10.944 29.4416 10.944C30.359 10.944 31.0896 10.752 31.6336 10.368C32.1883 9.984 32.4656 9.43467 32.4656 8.72C32.4656 7.20533 31.3883 6.448 29.2336 6.448C28.295 6.448 27.3563 6.61867 26.4176 6.96L26.7696 1.12Z" fill="#A1A6B4"/>
</svg>
