<svg width="45" height="16" viewBox="0 0 45 16" fill="none" xmlns="http://www.w3.org/2000/svg">
<path fill-rule="evenodd" clip-rule="evenodd" d="M1.3 11.331L8.29606 6.5L1.3 1.66897V11.331ZM0.666238 1.23131L0.669532 1.23361L0.666238 1.23131ZM1.41031 12.8347L9.64301 7.14971C10.119 6.82485 10.119 6.17514 9.64301 5.85029L1.41031 0.165315C0.828559 -0.240754 0 0.149072 0 0.815026V12.185C0 12.8509 0.828559 13.2408 1.41031 12.8347Z" fill="#A1A6B4"/>
<path d="M19.488 1.12H20.48V10.72H22.512V12H16.848V10.72H19.136V2.544L16.848 3.408V2.128L19.488 1.12ZM24.907 10.64C24.0963 9.60533 23.691 8.24533 23.691 6.56C23.691 4.87467 24.0963 3.51467 24.907 2.48C25.7177 1.44533 26.9123 0.927999 28.491 0.927999C30.0803 0.927999 31.2803 1.44533 32.091 2.48C32.9017 3.504 33.307 4.864 33.307 6.56C33.307 8.256 32.9017 9.62133 32.091 10.656C31.2803 11.68 30.0803 12.192 28.491 12.192C26.9123 12.192 25.7177 11.6747 24.907 10.64ZM31.083 9.792C31.659 9.03467 31.947 7.95733 31.947 6.56C31.947 5.16267 31.659 4.09067 31.083 3.344C30.5177 2.58667 29.6537 2.208 28.491 2.208C27.3283 2.208 26.4643 2.58667 25.899 3.344C25.3337 4.09067 25.051 5.16267 25.051 6.56C25.051 7.95733 25.3337 9.03467 25.899 9.792C26.4643 10.5387 27.3283 10.912 28.491 10.912C29.6537 10.912 30.5177 10.5387 31.083 9.792ZM40.461 1.12H41.917V8.336H43.965V9.584H41.917V12H40.589V9.584H34.525V8.384L40.461 1.12ZM40.589 8.336V2.928L36.173 8.336H40.589Z" fill="#A1A6B4"/>
</svg>
