<svg width="36" height="16" viewBox="0 0 36 16" fill="none" xmlns="http://www.w3.org/2000/svg">
<path fill-rule="evenodd" clip-rule="evenodd" d="M1.3 11.331L8.29606 6.5L1.3 1.66897V11.331ZM0.666238 1.23131L0.669532 1.23361L0.666238 1.23131ZM1.41031 12.8347L9.64301 7.14971C10.119 6.82485 10.119 6.17514 9.64301 5.85029L1.41031 0.165315C0.828559 -0.240754 0 0.149072 0 0.815026V12.185C0 12.8509 0.828559 13.2408 1.41031 12.8347Z" fill="#A1A6B4"/>
<path d="M17.088 1.984C18.1013 1.28 19.264 0.927999 20.576 0.927999C21.7067 0.927999 22.608 1.184 23.28 1.696C23.952 2.208 24.288 2.92267 24.288 3.84C24.288 4.27733 24.2027 4.688 24.032 5.072C23.872 5.456 23.6267 5.808 23.296 6.128C22.976 6.448 22.6613 6.72 22.352 6.944C22.0533 7.15733 21.6747 7.39733 21.216 7.664C21.1627 7.696 20.9973 7.792 20.72 7.952C20.4533 8.112 20.2827 8.21333 20.208 8.256C20.144 8.29867 19.9947 8.39467 19.76 8.544C19.536 8.68267 19.3867 8.784 19.312 8.848C19.248 8.912 19.1307 9.01333 18.96 9.152C18.8 9.29067 18.688 9.408 18.624 9.504C18.5707 9.6 18.496 9.72267 18.4 9.872C18.3147 10.0107 18.256 10.1493 18.224 10.288C18.192 10.4267 18.176 10.576 18.176 10.736L24.368 10.72V12H16.704V11.36C16.704 10.7627 16.8 10.224 16.992 9.744C17.184 9.25333 17.456 8.83733 17.808 8.496C18.1707 8.144 18.528 7.85067 18.88 7.616C19.232 7.37067 19.6427 7.10933 20.112 6.832C20.2187 6.77867 20.2987 6.736 20.352 6.704C21.3227 6.13867 21.9573 5.70667 22.256 5.408C22.7147 4.93867 22.944 4.41067 22.944 3.824C22.944 3.29067 22.7253 2.88533 22.288 2.608C21.8613 2.32 21.2533 2.176 20.464 2.176C19.312 2.176 18.1867 2.56 17.088 3.328V1.984ZM31.5235 1.12H32.9795V8.336H35.0275V9.584H32.9795V12H31.6515V9.584H25.5875V8.384L31.5235 1.12ZM31.6515 8.336V2.928L27.2355 8.336H31.6515Z" fill="#A1A6B4"/>
</svg>
