<svg width="36" height="16" viewBox="0 0 36 16" fill="none" xmlns="http://www.w3.org/2000/svg">
<path fill-rule="evenodd" clip-rule="evenodd" d="M1.3 11.331L8.29606 6.5L1.3 1.66897V11.331ZM0.666238 1.23131L0.669532 1.23361L0.666238 1.23131ZM1.41031 12.8347L9.64301 7.14971C10.119 6.82485 10.119 6.17514 9.64301 5.85029L1.41031 0.165315C0.828559 -0.240754 0 0.149072 0 0.815026V12.185C0 12.8509 0.828559 13.2408 1.41031 12.8347Z" fill="#A1A6B4"/>
<path d="M17.504 1.12H24.032V2.4H18.768L18.576 5.472C19.152 5.312 19.7707 5.232 20.432 5.232C20.976 5.232 21.4827 5.296 21.952 5.424C22.4213 5.54133 22.8533 5.73333 23.248 6C23.6533 6.256 23.9733 6.61867 24.208 7.088C24.4427 7.54667 24.56 8.09067 24.56 8.72C24.56 9.79733 24.16 10.6453 23.36 11.264C22.5707 11.8827 21.5627 12.192 20.336 12.192C19.0133 12.192 17.8507 11.9467 16.848 11.456V10.176C17.808 10.688 18.9173 10.944 20.176 10.944C21.0933 10.944 21.824 10.752 22.368 10.368C22.9227 9.984 23.2 9.43467 23.2 8.72C23.2 7.20533 22.1227 6.448 19.968 6.448C19.0293 6.448 18.0907 6.61867 17.152 6.96L17.504 1.12ZM26.4336 3.744C26.4336 2.976 26.7696 2.31467 27.4416 1.76C28.1136 1.20533 29.1003 0.927999 30.4016 0.927999C31.607 0.927999 32.5776 1.22133 33.3136 1.808C34.0496 2.39467 34.4283 3.09867 34.4496 3.92C34.4816 5.04 33.9856 5.95733 32.9616 6.672C34.2096 7.29067 34.8336 8.144 34.8336 9.232C34.8336 10.064 34.4656 10.768 33.7296 11.344C33.0043 11.9093 31.927 12.192 30.4976 12.192C29.079 12.192 27.9803 11.8827 27.2016 11.264C26.4336 10.6453 26.0496 9.89333 26.0496 9.008C26.0496 8.47467 26.2043 7.94667 26.5136 7.424C26.8336 6.89067 27.2976 6.44267 27.9056 6.08C26.9243 5.48267 26.4336 4.704 26.4336 3.744ZM30.5616 7.104C30.007 6.95467 29.5003 6.79467 29.0416 6.624C28.5083 6.88 28.0976 7.21067 27.8096 7.616C27.5323 8.02133 27.3936 8.43733 27.3936 8.864C27.3936 9.51467 27.6603 10.0267 28.1936 10.4C28.7376 10.7627 29.5163 10.944 30.5296 10.944C31.383 10.944 32.087 10.7947 32.6416 10.496C33.207 10.1867 33.4896 9.78667 33.4896 9.296C33.4896 8.88 33.3403 8.528 33.0416 8.24C32.7536 7.94133 32.471 7.73867 32.1936 7.632C31.9163 7.52533 31.4576 7.376 30.8176 7.184C30.7003 7.152 30.615 7.12533 30.5616 7.104ZM33.1056 4.16C33.1056 3.59467 32.8656 3.12533 32.3856 2.752C31.9056 2.368 31.2336 2.176 30.3696 2.176C29.5803 2.176 28.951 2.32533 28.4816 2.624C28.0123 2.912 27.7776 3.28 27.7776 3.728C27.7776 4.03733 27.8416 4.30933 27.9696 4.544C28.1083 4.768 28.311 4.96 28.5776 5.12C28.855 5.26933 29.1056 5.392 29.3296 5.488C29.5536 5.57333 29.8523 5.66933 30.2256 5.776C30.2683 5.78667 30.3003 5.79733 30.3216 5.808C30.343 5.808 30.3696 5.81333 30.4016 5.824C30.4336 5.83467 30.4656 5.84533 30.4976 5.856C30.5296 5.86667 30.711 5.92 31.0416 6.016C31.383 6.10133 31.6443 6.17067 31.8256 6.224C32.679 5.66933 33.1056 4.98133 33.1056 4.16Z" fill="#A1A6B4"/>
</svg>
