<svg width="38" height="16" viewBox="0 0 38 16" fill="none" xmlns="http://www.w3.org/2000/svg">
<path fill-rule="evenodd" clip-rule="evenodd" d="M1.3 12.831L8.29606 8L1.3 3.16897V12.831ZM0.666238 2.73131L0.669532 2.73361L0.666238 2.73131ZM1.41031 14.3347L9.64301 8.64971C10.119 8.32485 10.119 7.67514 9.64301 7.35029L1.41031 1.66532C0.828559 1.25925 0 1.64907 0 2.31503V13.685C0 14.3509 0.828559 14.7408 1.41031 14.3347Z" fill="#A1A6B4"/>
<path d="M16.816 3.488C17.576 2.96 18.448 2.696 19.432 2.696C20.28 2.696 20.956 2.888 21.46 3.272C21.964 3.656 22.216 4.192 22.216 4.88C22.216 5.208 22.152 5.516 22.024 5.804C21.904 6.092 21.72 6.356 21.472 6.596C21.232 6.836 20.996 7.04 20.764 7.208C20.54 7.368 20.256 7.548 19.912 7.748C19.872 7.772 19.748 7.844 19.54 7.964C19.34 8.084 19.212 8.16 19.156 8.192C19.108 8.224 18.996 8.296 18.82 8.408C18.652 8.512 18.54 8.588 18.484 8.636C18.436 8.684 18.348 8.76 18.22 8.864C18.1 8.968 18.016 9.056 17.968 9.128C17.928 9.2 17.872 9.292 17.8 9.404C17.736 9.508 17.692 9.612 17.668 9.716C17.644 9.82 17.632 9.932 17.632 10.052L22.276 10.04V11H16.528V10.52C16.528 10.072 16.6 9.668 16.744 9.308C16.888 8.94 17.092 8.628 17.356 8.372C17.628 8.108 17.896 7.888 18.16 7.712C18.424 7.528 18.732 7.332 19.084 7.124C19.164 7.084 19.224 7.052 19.264 7.028C19.992 6.604 20.468 6.28 20.692 6.056C21.036 5.704 21.208 5.308 21.208 4.868C21.208 4.468 21.044 4.164 20.716 3.956C20.396 3.74 19.94 3.632 19.348 3.632C18.484 3.632 17.64 3.92 16.816 4.496V3.488ZM24.0186 2.84H28.9146V3.8H24.9666L24.8226 6.104C25.2546 5.984 25.7186 5.924 26.2146 5.924C26.6226 5.924 27.0026 5.972 27.3546 6.068C27.7066 6.156 28.0306 6.3 28.3266 6.5C28.6306 6.692 28.8706 6.964 29.0466 7.316C29.2226 7.66 29.3106 8.068 29.3106 8.54C29.3106 9.348 29.0106 9.984 28.4106 10.448C27.8186 10.912 27.0626 11.144 26.1426 11.144C25.1506 11.144 24.2786 10.96 23.5266 10.592V9.632C24.2466 10.016 25.0786 10.208 26.0226 10.208C26.7106 10.208 27.2586 10.064 27.6666 9.776C28.0826 9.488 28.2906 9.076 28.2906 8.54C28.2906 7.404 27.4826 6.836 25.8666 6.836C25.1626 6.836 24.4586 6.964 23.7546 7.22L24.0186 2.84ZM30.7158 4.808C30.7158 4.232 30.9678 3.736 31.4718 3.32C31.9758 2.904 32.7158 2.696 33.6918 2.696C34.5958 2.696 35.3238 2.916 35.8758 3.356C36.4278 3.796 36.7118 4.324 36.7278 4.94C36.7518 5.78 36.3798 6.468 35.6118 7.004C36.5478 7.468 37.0158 8.108 37.0158 8.924C37.0158 9.548 36.7398 10.076 36.1878 10.508C35.6438 10.932 34.8358 11.144 33.7638 11.144C32.6998 11.144 31.8758 10.912 31.2918 10.448C30.7158 9.984 30.4278 9.42 30.4278 8.756C30.4278 8.356 30.5438 7.96 30.7758 7.568C31.0158 7.168 31.3638 6.832 31.8198 6.56C31.0838 6.112 30.7158 5.528 30.7158 4.808ZM33.8118 7.328C33.3958 7.216 33.0158 7.096 32.6718 6.968C32.2718 7.16 31.9638 7.408 31.7478 7.712C31.5398 8.016 31.4358 8.328 31.4358 8.648C31.4358 9.136 31.6358 9.52 32.0358 9.8C32.4438 10.072 33.0278 10.208 33.7878 10.208C34.4278 10.208 34.9558 10.096 35.3718 9.872C35.7958 9.64 36.0078 9.34 36.0078 8.972C36.0078 8.66 35.8958 8.396 35.6718 8.18C35.4558 7.956 35.2438 7.804 35.0358 7.724C34.8278 7.644 34.4838 7.532 34.0038 7.388C33.9158 7.364 33.8518 7.344 33.8118 7.328ZM35.7198 5.12C35.7198 4.696 35.5398 4.344 35.1798 4.064C34.8198 3.776 34.3158 3.632 33.6678 3.632C33.0758 3.632 32.6038 3.744 32.2518 3.968C31.8998 4.184 31.7238 4.46 31.7238 4.796C31.7238 5.028 31.7718 5.232 31.8678 5.408C31.9718 5.576 32.1238 5.72 32.3238 5.84C32.5318 5.952 32.7198 6.044 32.8878 6.116C33.0558 6.18 33.2798 6.252 33.5598 6.332C33.5918 6.34 33.6158 6.348 33.6318 6.356C33.6478 6.356 33.6678 6.36 33.6918 6.368C33.7158 6.376 33.7398 6.384 33.7638 6.392C33.7878 6.4 33.9238 6.44 34.1718 6.512C34.4278 6.576 34.6238 6.628 34.7598 6.668C35.3998 6.252 35.7198 5.736 35.7198 5.12Z" fill="#A1A6B4"/>
</svg>
