<svg width="38" height="16" viewBox="0 0 38 16" fill="none" xmlns="http://www.w3.org/2000/svg">
<path fill-rule="evenodd" clip-rule="evenodd" d="M1.3 12.831L8.29606 8L1.3 3.16897V12.831ZM0.666238 2.73131L0.669532 2.73361L0.666238 2.73131ZM1.41031 14.3347L9.64301 8.64971C10.119 8.32485 10.119 7.67514 9.64301 7.35029L1.41031 1.66532C0.828559 1.25925 0 1.64907 0 2.31503V13.685C0 14.3509 0.828559 14.7408 1.41031 14.3347Z" fill="#A1A6B4"/>
<path d="M18.616 2.84H19.36V10.04H20.884V11H16.636V10.04H18.352V3.908L16.636 4.556V3.596L18.616 2.84ZM22.6803 9.98C22.0723 9.204 21.7683 8.184 21.7683 6.92C21.7683 5.656 22.0723 4.636 22.6803 3.86C23.2883 3.084 24.1843 2.696 25.3683 2.696C26.5603 2.696 27.4603 3.084 28.0683 3.86C28.6763 4.628 28.9803 5.648 28.9803 6.92C28.9803 8.192 28.6763 9.216 28.0683 9.992C27.4603 10.76 26.5603 11.144 25.3683 11.144C24.1843 11.144 23.2883 10.756 22.6803 9.98ZM27.3123 9.344C27.7443 8.776 27.9603 7.968 27.9603 6.92C27.9603 5.872 27.7443 5.068 27.3123 4.508C26.8883 3.94 26.2403 3.656 25.3683 3.656C24.4963 3.656 23.8483 3.94 23.4243 4.508C23.0003 5.068 22.7883 5.872 22.7883 6.92C22.7883 7.968 23.0003 8.776 23.4243 9.344C23.8483 9.904 24.4963 10.184 25.3683 10.184C26.2403 10.184 26.8883 9.904 27.3123 9.344ZM34.3458 2.84H35.4378V8.252H36.9738V9.188H35.4378V11H34.4418V9.188H29.8938V8.288L34.3458 2.84ZM34.4418 8.252V4.196L31.1298 8.252H34.4418Z" fill="#A1A6B4"/>
</svg>
