<svg width="31" height="16" viewBox="0 0 31 16" fill="none" xmlns="http://www.w3.org/2000/svg">
<path fill-rule="evenodd" clip-rule="evenodd" d="M1.3 12.831L8.29606 8L1.3 3.16897V12.831ZM0.666238 2.73131L0.669532 2.73361L0.666238 2.73131ZM1.41031 14.3347L9.64301 8.64971C10.119 8.32485 10.119 7.67514 9.64301 7.35029L1.41031 1.66532C0.828559 1.25925 0 1.64907 0 2.31503V13.685C0 14.3509 0.828559 14.7408 1.41031 14.3347Z" fill="#A1A6B4"/>
<path d="M16.876 4.808C16.876 4.232 17.128 3.736 17.632 3.32C18.136 2.904 18.876 2.696 19.852 2.696C20.756 2.696 21.484 2.916 22.036 3.356C22.588 3.796 22.872 4.324 22.888 4.94C22.912 5.78 22.54 6.468 21.772 7.004C22.708 7.468 23.176 8.108 23.176 8.924C23.176 9.548 22.9 10.076 22.348 10.508C21.804 10.932 20.996 11.144 19.924 11.144C18.86 11.144 18.036 10.912 17.452 10.448C16.876 9.984 16.588 9.42 16.588 8.756C16.588 8.356 16.704 7.96 16.936 7.568C17.176 7.168 17.524 6.832 17.98 6.56C17.244 6.112 16.876 5.528 16.876 4.808ZM19.972 7.328C19.556 7.216 19.176 7.096 18.832 6.968C18.432 7.16 18.124 7.408 17.908 7.712C17.7 8.016 17.596 8.328 17.596 8.648C17.596 9.136 17.796 9.52 18.196 9.8C18.604 10.072 19.188 10.208 19.948 10.208C20.588 10.208 21.116 10.096 21.532 9.872C21.956 9.64 22.168 9.34 22.168 8.972C22.168 8.66 22.056 8.396 21.832 8.18C21.616 7.956 21.404 7.804 21.196 7.724C20.988 7.644 20.644 7.532 20.164 7.388C20.076 7.364 20.012 7.344 19.972 7.328ZM21.88 5.12C21.88 4.696 21.7 4.344 21.34 4.064C20.98 3.776 20.476 3.632 19.828 3.632C19.236 3.632 18.764 3.744 18.412 3.968C18.06 4.184 17.884 4.46 17.884 4.796C17.884 5.028 17.932 5.232 18.028 5.408C18.132 5.576 18.284 5.72 18.484 5.84C18.692 5.952 18.88 6.044 19.048 6.116C19.216 6.18 19.44 6.252 19.72 6.332C19.752 6.34 19.776 6.348 19.792 6.356C19.808 6.356 19.828 6.36 19.852 6.368C19.876 6.376 19.9 6.384 19.924 6.392C19.948 6.4 20.084 6.44 20.332 6.512C20.588 6.576 20.784 6.628 20.92 6.668C21.56 6.252 21.88 5.736 21.88 5.12ZM24.0935 2.84H29.9735V3.752L26.5655 11H25.4855L28.8695 3.8H24.0935V2.84Z" fill="#A1A6B4"/>
</svg>
