<svg width="37" height="16" viewBox="0 0 37 16" fill="none" xmlns="http://www.w3.org/2000/svg">
<path fill-rule="evenodd" clip-rule="evenodd" d="M1.3 11.331L8.29606 6.5L1.3 1.66897V11.331ZM0.666238 1.23131L0.669532 1.23361L0.666238 1.23131ZM1.41031 12.8347L9.64301 7.14971C10.119 6.82485 10.119 6.17514 9.64301 5.85029L1.41031 0.165315C0.828559 -0.240754 0 0.149072 0 0.815026V12.185C0 12.8509 0.828559 13.2408 1.41031 12.8347Z" fill="#A1A6B4"/>
<path d="M18.192 6.256C19.2267 5.56267 20.3627 5.216 21.6 5.216C22.592 5.216 23.4613 5.52 24.208 6.128C24.9547 6.72533 25.328 7.55733 25.328 8.624C25.328 9.744 24.9547 10.6187 24.208 11.248C23.472 11.8773 22.544 12.192 21.424 12.192C19.888 12.192 18.736 11.7173 17.968 10.768C17.2107 9.808 16.832 8.464 16.832 6.736C16.832 4.816 17.2853 3.37067 18.192 2.4C19.1093 1.41867 20.304 0.927999 21.776 0.927999C22.7253 0.927999 23.6053 1.136 24.416 1.552V2.832C23.6267 2.416 22.7573 2.208 21.808 2.208C20.8053 2.208 19.968 2.53333 19.296 3.184C18.6347 3.824 18.2667 4.848 18.192 6.256ZM18.208 7.6C18.4107 9.82933 19.4507 10.944 21.328 10.944C22.1173 10.944 22.752 10.7627 23.232 10.4C23.7227 10.0373 23.968 9.46667 23.968 8.688C23.968 7.89867 23.7173 7.33333 23.216 6.992C22.7147 6.64 22.064 6.464 21.264 6.464C20.08 6.464 19.0613 6.84267 18.208 7.6ZM32.2735 1.12H33.7295V8.336H35.7775V9.584H33.7295V12H32.4015V9.584H26.3375V8.384L32.2735 1.12ZM32.4015 8.336V2.928L27.9855 8.336H32.4015Z" fill="#A1A6B4"/>
</svg>
