<svg width="45" height="16" viewBox="0 0 45 16" fill="none" xmlns="http://www.w3.org/2000/svg">
<path fill-rule="evenodd" clip-rule="evenodd" d="M1.3 11.331L8.29606 6.5L1.3 1.66897V11.331ZM0.666238 1.23131L0.669532 1.23361L0.666238 1.23131ZM1.41031 12.8347L9.64301 7.14971C10.119 6.82485 10.119 6.17514 9.64301 5.85029L1.41031 0.165315C0.828559 -0.240754 0 0.149072 0 0.815026V12.185C0 12.8509 0.828559 13.2408 1.41031 12.8347Z" fill="#A1A6B4"/>
<path d="M17.088 1.984C18.1013 1.28 19.264 0.927999 20.576 0.927999C21.7067 0.927999 22.608 1.184 23.28 1.696C23.952 2.208 24.288 2.92267 24.288 3.84C24.288 4.27733 24.2027 4.688 24.032 5.072C23.872 5.456 23.6267 5.808 23.296 6.128C22.976 6.448 22.6613 6.72 22.352 6.944C22.0533 7.15733 21.6747 7.39733 21.216 7.664C21.1627 7.696 20.9973 7.792 20.72 7.952C20.4533 8.112 20.2827 8.21333 20.208 8.256C20.144 8.29867 19.9947 8.39467 19.76 8.544C19.536 8.68267 19.3867 8.784 19.312 8.848C19.248 8.912 19.1307 9.01333 18.96 9.152C18.8 9.29067 18.688 9.408 18.624 9.504C18.5707 9.6 18.496 9.72267 18.4 9.872C18.3147 10.0107 18.256 10.1493 18.224 10.288C18.192 10.4267 18.176 10.576 18.176 10.736L24.368 10.72V12H16.704V11.36C16.704 10.7627 16.8 10.224 16.992 9.744C17.184 9.25333 17.456 8.83733 17.808 8.496C18.1707 8.144 18.528 7.85067 18.88 7.616C19.232 7.37067 19.6427 7.10933 20.112 6.832C20.2187 6.77867 20.2987 6.736 20.352 6.704C21.3227 6.13867 21.9573 5.70667 22.256 5.408C22.7147 4.93867 22.944 4.41067 22.944 3.824C22.944 3.29067 22.7253 2.88533 22.288 2.608C21.8613 2.32 21.2533 2.176 20.464 2.176C19.312 2.176 18.1867 2.56 17.088 3.328V1.984ZM26.6915 1.12H33.2195V2.4H27.9555L27.7635 5.472C28.3395 5.312 28.9582 5.232 29.6195 5.232C30.1635 5.232 30.6702 5.296 31.1395 5.424C31.6088 5.54133 32.0408 5.73333 32.4355 6C32.8408 6.256 33.1608 6.61867 33.3955 7.088C33.6302 7.54667 33.7475 8.09067 33.7475 8.72C33.7475 9.79733 33.3475 10.6453 32.5475 11.264C31.7582 11.8827 30.7502 12.192 29.5235 12.192C28.2008 12.192 27.0382 11.9467 26.0355 11.456V10.176C26.9955 10.688 28.1048 10.944 29.3635 10.944C30.2808 10.944 31.0115 10.752 31.5555 10.368C32.1102 9.984 32.3875 9.43467 32.3875 8.72C32.3875 7.20533 31.3102 6.448 29.1555 6.448C28.2168 6.448 27.2782 6.61867 26.3395 6.96L26.6915 1.12ZM35.6211 3.744C35.6211 2.976 35.9571 2.31467 36.6291 1.76C37.3011 1.20533 38.2878 0.927999 39.5891 0.927999C40.7945 0.927999 41.7651 1.22133 42.5011 1.808C43.2371 2.39467 43.6158 3.09867 43.6371 3.92C43.6691 5.04 43.1731 5.95733 42.1491 6.672C43.3971 7.29067 44.0211 8.144 44.0211 9.232C44.0211 10.064 43.6531 10.768 42.9171 11.344C42.1918 11.9093 41.1145 12.192 39.6851 12.192C38.2665 12.192 37.1678 11.8827 36.3891 11.264C35.6211 10.6453 35.2371 9.89333 35.2371 9.008C35.2371 8.47467 35.3918 7.94667 35.7011 7.424C36.0211 6.89067 36.4851 6.44267 37.0931 6.08C36.1118 5.48267 35.6211 4.704 35.6211 3.744ZM39.7491 7.104C39.1945 6.95467 38.6878 6.79467 38.2291 6.624C37.6958 6.88 37.2851 7.21067 36.9971 7.616C36.7198 8.02133 36.5811 8.43733 36.5811 8.864C36.5811 9.51467 36.8478 10.0267 37.3811 10.4C37.9251 10.7627 38.7038 10.944 39.7171 10.944C40.5705 10.944 41.2745 10.7947 41.8291 10.496C42.3945 10.1867 42.6771 9.78667 42.6771 9.296C42.6771 8.88 42.5278 8.528 42.2291 8.24C41.9411 7.94133 41.6585 7.73867 41.3811 7.632C41.1038 7.52533 40.6451 7.376 40.0051 7.184C39.8878 7.152 39.8025 7.12533 39.7491 7.104ZM42.2931 4.16C42.2931 3.59467 42.0531 3.12533 41.5731 2.752C41.0931 2.368 40.4211 2.176 39.5571 2.176C38.7678 2.176 38.1385 2.32533 37.6691 2.624C37.1998 2.912 36.9651 3.28 36.9651 3.728C36.9651 4.03733 37.0291 4.30933 37.1571 4.544C37.2958 4.768 37.4985 4.96 37.7651 5.12C38.0425 5.26933 38.2931 5.392 38.5171 5.488C38.7411 5.57333 39.0398 5.66933 39.4131 5.776C39.4558 5.78667 39.4878 5.79733 39.5091 5.808C39.5305 5.808 39.5571 5.81333 39.5891 5.824C39.6211 5.83467 39.6531 5.84533 39.6851 5.856C39.7171 5.86667 39.8985 5.92 40.2291 6.016C40.5705 6.10133 40.8318 6.17067 41.0131 6.224C41.8665 5.66933 42.2931 4.98133 42.2931 4.16Z" fill="#A1A6B4"/>
</svg>
