<svg width="35" height="16" viewBox="0 0 35 16" fill="none" xmlns="http://www.w3.org/2000/svg">
<path fill-rule="evenodd" clip-rule="evenodd" d="M1.3 11.331L8.29606 6.5L1.3 1.66897V11.331ZM0.666238 1.23131L0.669532 1.23361L0.666238 1.23131ZM1.41031 12.8347L9.64301 7.14971C10.119 6.82485 10.119 6.17514 9.64301 5.85029L1.41031 0.165315C0.828559 -0.240754 0 0.149072 0 0.815026V12.185C0 12.8509 0.828559 13.2408 1.41031 12.8347Z" fill="#A1A6B4"/>
<path d="M17.168 3.744C17.168 2.976 17.504 2.31467 18.176 1.76C18.848 1.20533 19.8347 0.927999 21.136 0.927999C22.3413 0.927999 23.312 1.22133 24.048 1.808C24.784 2.39467 25.1627 3.09867 25.184 3.92C25.216 5.04 24.72 5.95733 23.696 6.672C24.944 7.29067 25.568 8.144 25.568 9.232C25.568 10.064 25.2 10.768 24.464 11.344C23.7387 11.9093 22.6613 12.192 21.232 12.192C19.8133 12.192 18.7147 11.8827 17.936 11.264C17.168 10.6453 16.784 9.89333 16.784 9.008C16.784 8.47467 16.9387 7.94667 17.248 7.424C17.568 6.89067 18.032 6.44267 18.64 6.08C17.6587 5.48267 17.168 4.704 17.168 3.744ZM21.296 7.104C20.7413 6.95467 20.2347 6.79467 19.776 6.624C19.2427 6.88 18.832 7.21067 18.544 7.616C18.2667 8.02133 18.128 8.43733 18.128 8.864C18.128 9.51467 18.3947 10.0267 18.928 10.4C19.472 10.7627 20.2507 10.944 21.264 10.944C22.1173 10.944 22.8213 10.7947 23.376 10.496C23.9413 10.1867 24.224 9.78667 24.224 9.296C24.224 8.88 24.0747 8.528 23.776 8.24C23.488 7.94133 23.2053 7.73867 22.928 7.632C22.6507 7.52533 22.192 7.376 21.552 7.184C21.4347 7.152 21.3493 7.12533 21.296 7.104ZM23.84 4.16C23.84 3.59467 23.6 3.12533 23.12 2.752C22.64 2.368 21.968 2.176 21.104 2.176C20.3147 2.176 19.6853 2.32533 19.216 2.624C18.7467 2.912 18.512 3.28 18.512 3.728C18.512 4.03733 18.576 4.30933 18.704 4.544C18.8427 4.768 19.0453 4.96 19.312 5.12C19.5893 5.26933 19.84 5.392 20.064 5.488C20.288 5.57333 20.5867 5.66933 20.96 5.776C21.0027 5.78667 21.0347 5.79733 21.056 5.808C21.0773 5.808 21.104 5.81333 21.136 5.824C21.168 5.83467 21.2 5.84533 21.232 5.856C21.264 5.86667 21.4453 5.92 21.776 6.016C22.1173 6.10133 22.3787 6.17067 22.56 6.224C23.4133 5.66933 23.84 4.98133 23.84 4.16ZM26.7914 1.12H34.6314V2.336L30.0874 12H28.6474L33.1594 2.4H26.7914V1.12Z" fill="#A1A6B4"/>
</svg>
