<svg width="38" height="16" viewBox="0 0 38 16" fill="none" xmlns="http://www.w3.org/2000/svg">
<path fill-rule="evenodd" clip-rule="evenodd" d="M1.3 12.831L8.29606 8L1.3 3.16897V12.831ZM0.666238 2.73131L0.669532 2.73361L0.666238 2.73131ZM1.41031 14.3347L9.64301 8.64971C10.119 8.32485 10.119 7.67514 9.64301 7.35029L1.41031 1.66532C0.828559 1.25925 0 1.64907 0 2.31503V13.685C0 14.3509 0.828559 14.7408 1.41031 14.3347Z" fill="#A1A6B4"/>
<path d="M16.816 3.488C17.576 2.96 18.448 2.696 19.432 2.696C20.28 2.696 20.956 2.888 21.46 3.272C21.964 3.656 22.216 4.192 22.216 4.88C22.216 5.208 22.152 5.516 22.024 5.804C21.904 6.092 21.72 6.356 21.472 6.596C21.232 6.836 20.996 7.04 20.764 7.208C20.54 7.368 20.256 7.548 19.912 7.748C19.872 7.772 19.748 7.844 19.54 7.964C19.34 8.084 19.212 8.16 19.156 8.192C19.108 8.224 18.996 8.296 18.82 8.408C18.652 8.512 18.54 8.588 18.484 8.636C18.436 8.684 18.348 8.76 18.22 8.864C18.1 8.968 18.016 9.056 17.968 9.128C17.928 9.2 17.872 9.292 17.8 9.404C17.736 9.508 17.692 9.612 17.668 9.716C17.644 9.82 17.632 9.932 17.632 10.052L22.276 10.04V11H16.528V10.52C16.528 10.072 16.6 9.668 16.744 9.308C16.888 8.94 17.092 8.628 17.356 8.372C17.628 8.108 17.896 7.888 18.16 7.712C18.424 7.528 18.732 7.332 19.084 7.124C19.164 7.084 19.224 7.052 19.264 7.028C19.992 6.604 20.468 6.28 20.692 6.056C21.036 5.704 21.208 5.308 21.208 4.868C21.208 4.468 21.044 4.164 20.716 3.956C20.396 3.74 19.94 3.632 19.348 3.632C18.484 3.632 17.64 3.92 16.816 4.496V3.488ZM24.4146 9.98C23.8066 9.204 23.5026 8.184 23.5026 6.92C23.5026 5.656 23.8066 4.636 24.4146 3.86C25.0226 3.084 25.9186 2.696 27.1026 2.696C28.2946 2.696 29.1946 3.084 29.8026 3.86C30.4106 4.628 30.7146 5.648 30.7146 6.92C30.7146 8.192 30.4106 9.216 29.8026 9.992C29.1946 10.76 28.2946 11.144 27.1026 11.144C25.9186 11.144 25.0226 10.756 24.4146 9.98ZM29.0466 9.344C29.4786 8.776 29.6946 7.968 29.6946 6.92C29.6946 5.872 29.4786 5.068 29.0466 4.508C28.6226 3.94 27.9746 3.656 27.1026 3.656C26.2306 3.656 25.5826 3.94 25.1586 4.508C24.7346 5.068 24.5226 5.872 24.5226 6.92C24.5226 7.968 24.7346 8.776 25.1586 9.344C25.5826 9.904 26.2306 10.184 27.1026 10.184C27.9746 10.184 28.6226 9.904 29.0466 9.344ZM31.6521 2.84H37.5321V3.752L34.1241 11H33.0441L36.4281 3.8H31.6521V2.84Z" fill="#A1A6B4"/>
</svg>
